<?xml version="1.0" standalone="no"?>
<!DOCTYPE svg PUBLIC "-//W3C//DTD SVG 1.1//EN" "http://www.w3.org/Graphics/SVG/1.1/DTD/svg11.dtd">
<!--Generator: Xara Designer (www.xara.com), SVG filter version: 6.6.0.6-->
<svg fill="none" fill-rule="evenodd" stroke="black" stroke-width="0.501" stroke-linejoin="bevel" stroke-miterlimit="10" font-family="Times New Roman" font-size="16" style="font-variant-ligatures:none" xmlns:xlink="http://www.w3.org/1999/xlink" xmlns="http://www.w3.org/2000/svg" version="1.1" overflow="visible" width="695.296pt" height="428.92pt" viewBox="0 -428.92 695.296 428.92">
 <defs>
	</defs>
 <g id="Layer 1" transform="scale(1 -1)">
  <g id="Group" fill-rule="nonzero" stroke-linejoin="miter" stroke="none" stroke-width="0.25" fill="#000000">
   <path d="M 243.759,0 L 238.819,56.477 L 602.392,88.284 L 607.332,31.808 L 243.759,0 Z M 252.183,10.059 L 260.834,10.816 L 259.601,24.906 L 263.435,25.241 L 268.753,16.363 C 271.01,12.646 272.824,11.604 276.605,11.935 C 277.434,12.007 278.875,12.238 279.846,12.479 L 279.166,20.249 C 278.756,20.161 278.502,20.087 278.036,20.046 C 276.896,19.946 276.619,20.131 275.954,21.169 L 271.369,28.232 C 275.043,30.381 276.972,33.994 276.523,39.123 C 275.812,47.256 270.463,49.92 262.9,49.258 L 248.862,48.03 L 252.183,10.059 Z M 285.492,12.973 L 309.631,15.085 L 308.47,22.396 L 293.758,21.108 L 293.046,29.241 L 306.619,30.429 L 305.975,37.785 L 292.403,36.597 L 291.728,44.316 L 306.232,45.585 L 305.584,52.992 L 282.17,50.944 L 285.492,12.973 Z M 330.086,16.353 C 333.868,16.683 338.552,18.033 343.022,20.042 L 341.236,40.452 L 327.975,39.292 L 328.614,31.988 L 333.535,32.418 L 334.192,24.907 C 332.364,24.329 331.082,24.061 329.787,23.947 C 324.762,23.508 322.622,25.304 321.738,35.405 C 320.85,45.559 322.781,47.346 328.687,47.862 C 331.018,48.066 333.013,47.928 338.258,46.455 L 339.438,54.441 C 333.638,55.708 330.766,55.718 327.502,55.432 C 315.847,54.412 311.174,48.157 312.371,34.482 C 313.508,21.479 318.586,15.346 330.086,16.353 Z M 350.865,18.692 L 359.775,19.472 L 356.453,57.443 L 347.543,56.663 L 350.865,18.692 Z M 381.991,20.894 C 391.989,21.768 397.452,27.936 396.242,41.767 C 395.014,55.805 388.731,60.789 378.578,59.901 C 368.529,59.021 363.163,52.34 364.345,38.82 C 365.569,24.833 371.734,19.996 381.991,20.894 Z M 404.064,23.347 L 412.145,24.054 L 410.364,44.412 C 410.237,45.862 409.993,47.459 409.763,48.901 L 410.281,48.946 C 410.723,47.471 411.433,45.915 412.281,44.58 L 424.681,25.151 L 433.125,25.889 L 429.803,63.86 L 421.774,63.158 L 423.405,44.509 C 423.523,43.162 423.772,41.514 424.05,40.128 L 423.532,40.083 C 422.977,41.653 422.163,43.2 421.437,44.337 L 410.067,62.134 L 400.742,61.318 L 404.064,23.347 Z M 464.561,28.118 C 474.559,28.992 480.022,35.16 478.811,48.991 C 477.584,63.029 471.302,68.013 461.149,67.125 C 451.099,66.245 445.733,59.564 446.916,46.044 C 448.14,32.057 454.305,27.22 464.561,28.118 Z M 373.708,39.796 C 372.788,50.311 374.395,52.227 379.161,52.644 C 383.72,53.043 385.946,51.463 386.866,40.947 C 387.772,30.586 386.122,28.563 381.356,28.146 C 376.539,27.724 374.61,29.487 373.708,39.796 Z M 486.686,30.575 L 509.324,32.556 L 507.993,40.008 L 494.939,38.866 L 492.275,69.326 L 483.365,68.546 L 486.686,30.575 Z M 259.017,31.588 L 258.109,41.949 L 262.928,42.37 C 266.037,42.642 267.429,41.042 267.701,37.933 C 268.032,34.152 266.58,32.25 263.472,31.978 L 259.017,31.588 Z M 515.435,33.091 L 524.398,33.875 L 521.724,64.438 L 530.323,65.19 L 529.675,72.598 L 503.514,70.309 L 504.163,62.902 L 512.762,63.654 L 515.435,33.091 Z M 538.125,35.076 L 562.265,37.188 L 561.103,44.498 L 546.392,43.211 L 545.68,51.344 L 559.252,52.531 L 558.609,59.887 L 545.037,58.7 L 544.361,66.418 L 558.866,67.688 L 558.218,75.095 L 534.803,73.048 L 538.125,35.076 Z M 456.278,47.02 C 455.358,57.535 456.966,59.451 461.731,59.868 C 466.29,60.267 468.516,58.687 469.436,48.171 C 470.342,37.81 468.693,35.787 463.927,35.37 C 459.109,34.948 457.18,36.711 456.278,47.02 Z M 568.533,37.736 L 576.614,38.443 L 574.833,58.801 C 574.706,60.252 574.462,61.848 574.231,63.29 L 574.749,63.335 C 575.191,61.86 575.902,60.304 576.749,58.969 L 589.15,39.54 L 597.594,40.278 L 594.272,78.249 L 586.242,77.548 L 587.874,58.898 C 587.992,57.551 588.24,55.903 588.518,54.518 L 588,54.472 C 587.445,56.042 586.631,57.589 585.905,58.726 L 574.535,76.523 L 565.211,75.707 L 568.533,37.736 Z" marker-start="none" marker-end="none"/>
   <path d="M 237.83,67.772 L 233.405,118.367 C 233.073,118.294 232.741,118.222 232.415,118.171 L 231.074,117.083 C 206.51,109.148 180.819,105.923 153.275,104.75 C 138.234,103.434 121.999,104.897 107.001,105.736 C 94.885,106.828 83.333,109.671 72.941,115.755 L 74.847,115.923 C 74.271,117.081 70.756,118.693 72.802,120.067 C 72.24,120.995 72.136,122.181 71.154,122.315 C 73.77,122.802 70.418,125.16 72.321,125.572 C 71.939,127.212 74.001,128.348 74.563,130.085 L 72.681,129.688 C 78.805,131.173 78.649,141.27 86.186,140.248 C 86.432,140.27 86.413,140.507 86.393,140.731 L 86.891,140.55 C 123.99,164.473 164.788,181.766 208.263,193.514 C 208.222,193.98 207.463,194.393 206.94,194.82 C 205.769,194.716 204.342,194.351 203.372,194.506 L 205.268,194.898 C 205.204,195.63 203.933,196.243 203.267,195.713 L 202.861,194.947 L 202.536,195.889 C 202.338,195.378 201.898,194.863 201.377,195.295 C 201.116,195.764 201.856,195.337 202.055,195.846 C 197.986,195.489 194.052,196.574 190.126,197.665 C 191.693,198.779 192.879,196.471 193.73,197.514 C 193.195,198.192 192.711,198.389 191.96,198.324 L 194.09,198.988 L 192.134,199.302 L 192.37,199.322 C 192.113,199.545 192.093,199.777 191.835,199.753 L 191.453,198.757 C 190.061,198.402 188.708,199.951 187.584,198.904 L 188.241,199.671 L 185.782,200.447 L 186.019,200.467 C 185.451,201.368 184.29,201.014 183.102,200.908 C 178.92,201.766 175.53,204.824 171.182,204.921 C 169.564,207.184 167.953,206.087 165.933,207.351 L 166.379,207.868 C 158.915,210.57 151.79,215.001 145.996,221.018 C 143.382,223.177 139.926,224.304 138.036,226.796 C 130.618,231.67 125.736,238.016 122.445,245.397 C 87.279,229.57 53.548,210.993 19.55,192.613 L 6.271,184.962 C 4.168,184.292 2.06,186.294 0,185.143 L 3.446,189.768 C 2.431,190.397 0.478,190.718 0.81,192.42 C 32.655,215.904 67.072,235.009 101.299,253.421 L 104.794,254.664 L 104.542,254.915 C 107.807,255.911 109.975,258.739 113.975,259.817 L 114.882,260.377 L 114.63,260.579 L 117.207,261.29 L 145.763,275.586 C 145.476,276.269 146.4,276.612 146.844,277.129 L 146.443,276.122 L 155.911,280.79 C 155.687,280.539 156.947,279.932 157.351,280.683 L 157.309,281.157 L 167.928,286.178 C 168.738,285.286 170.147,285.643 170.752,286.898 L 171.192,287.42 L 170,287.316 C 174.894,289.2 179.174,292.433 184.614,293.405 C 184.338,294.101 186.652,295.045 187.565,295.583 C 188.586,294.967 190.179,295.811 191.35,296.165 C 190.345,296.795 189.237,295.489 188.274,295.644 C 190.136,296.299 192.812,298.716 194.816,297.67 C 195.493,298.213 196.917,298.592 197.105,299.307 L 195.451,298.691 L 197.729,300.099 C 191.761,313.509 186.682,327.515 186.315,342.863 C 187.133,344.364 188.596,346.901 190.756,346.854 C 194.92,346.023 190.584,343.471 192.223,341.226 C 204.098,342.987 218.084,342.517 230.537,340.471 C 235.625,339.963 240.998,338.98 245.935,337.747 C 247.487,336.424 249.554,337.342 251.351,336.069 L 251.817,336.328 L 252.34,335.665 C 256.506,335.062 260.526,333.006 264.396,332.631 C 265.717,331.286 269.082,331.336 271.097,330.329 L 281.814,334.376 L 271.822,330.394 L 272.598,329.738 C 273.232,330.729 276.166,330.285 277.751,331.397 L 283.784,333.841 L 283.953,334.562 L 284.014,333.862 L 290.775,336.355 L 290.23,337.028 L 289.835,336.894 C 289.097,335.751 287.472,335.062 284.393,335.092 L 289.835,336.894 C 292.047,340.306 286.368,347.726 287.971,351.992 C 286.902,361.282 288.518,370.571 290.806,379.907 C 289.382,379.782 289.479,381.463 288.921,382.377 C 289.27,383.849 291.474,383.574 292.645,383.674 C 293.814,386.903 295.107,391.354 299.43,391.48 C 300.094,389.135 299.53,387.403 299.235,385.45 C 310.871,384.553 320.792,378.187 330.483,371.825 C 331.693,371.931 332.988,370.855 334.087,371.89 L 331.259,373.833 C 332.454,374.17 334.424,370.734 335.423,373.221 C 335.322,371.545 336.093,370.881 337.558,370.769 L 337.096,370.488 C 342.751,366.17 347.981,361.566 352.537,356.204 C 365.16,360.424 378.789,364.045 391.326,366.574 C 378.39,363.036 365.419,360.216 352.557,355.976 L 355.783,352.144 L 394.029,362.95 L 395.99,365.302 L 396.31,364.605 L 398.02,366.928 C 394.407,366.842 390.784,364.588 386.434,364.713 L 398.381,368.148 C 396.687,368.463 394.131,367.303 392.001,366.864 C 394.028,368.484 399.89,367.556 398.595,371.285 C 399.863,373.338 401.943,371.349 403.199,370.974 C 405.244,369.712 408.449,371.433 411.063,371.914 L 414.356,372.664 L 404.473,370.135 C 404.303,369.381 405.522,369.237 406.209,369.549 C 406.676,369.591 407.129,370.112 407.615,369.919 C 407.719,368.729 406.231,369.299 405.765,369.062 C 406.313,368.368 407.336,367.743 407.867,367.044 L 408.357,367.087 C 408.558,367.354 407.928,366.346 408.93,365.941 C 415.505,367.713 422.05,369.983 427.814,369.997 L 409.874,366.023 C 416.506,358.907 423.658,351.601 428.453,343.372 C 430.063,338.687 430.523,333.437 431.646,328.966 C 431.173,328.924 431.213,328.474 430.938,328.686 C 432.32,326.617 430.898,323.617 431.799,321.777 C 431.543,308.048 427.811,295.937 421.407,283.812 C 420.99,283.045 421.345,281.894 420.177,281.321 C 418.916,282.147 420.614,284.72 418.853,285.528 C 420.008,297.168 425.1,310.121 419.807,321.178 C 417.123,327.239 413.511,332.665 408.34,337.027 L 409.298,336.872 L 400.954,344.321 L 401.164,344.599 L 397.011,348.324 L 397.452,348.592 C 397.206,348.829 396.968,348.808 396.702,349.004 C 398.208,351.069 400.62,348.144 401.685,347.032 C 405.157,345.877 406.663,342.403 410.184,340.558 C 408.102,345.204 402.542,348.312 399.315,352.129 L 399.696,353.118 L 403.76,350.584 L 400.33,354.127 C 402.813,353.39 403.738,350.832 406.228,350.075 C 405.352,351.923 402.333,353.584 400.204,355.571 L 400.556,357.026 C 406.075,354.63 410.349,349.72 414.561,345.51 C 411.338,351.962 403.946,356.851 398.522,361.191 L 398.081,360.669 C 398.605,360.237 398.865,360.027 398.668,359.523 L 397.583,358.221 L 398.108,357.765 C 395.971,357.363 396.993,353.834 395.196,352.471 C 393.923,347.782 392.158,343.323 390.615,338.846 L 391.237,337.234 C 387.488,327.752 381.985,319.095 381.209,308.918 L 380.533,308.394 L 380.049,294.854 C 380.573,294.203 381.621,293.099 380.999,292.075 C 376.892,292.194 377.685,297.065 376.45,299.851 C 376.041,299.1 375.238,300.226 374.732,300.42 C 373.189,295.961 375.129,290.359 373.387,285.622 C 373.814,283.488 374.272,280.892 372.741,279.323 C 374.273,278.239 377.558,279.027 379.757,278.721 L 379.25,279.174 L 381.721,278.428 L 381.027,278.127 C 384.845,275.573 387.928,273.437 391.289,270.376 L 390.885,269.821 L 392.708,268.092 L 387.183,270.734 L 386.771,269.98 C 384.207,271.911 381.381,274.079 378.499,273.828 C 379.504,273.437 380.068,272.517 380.818,272.101 C 364.751,277.183 349.635,265.742 340.34,253.652 C 341.238,251.549 342.451,254.295 343.455,253.925 C 345.283,257.683 349.426,259.712 353.476,260.325 C 353.675,260.8 354.385,260.864 354.657,260.428 C 355.789,261.243 357.747,260.947 358.57,262.459 L 358.88,262.001 L 359.288,262.522 L 359.823,261.838 L 361.186,262.924 L 360.663,263.332 C 362.068,263.713 362.165,265.42 363.838,265.566 C 363.674,267.441 365.956,265.974 366.858,266.781 L 367.113,266.579 L 365.712,266.199 C 366.688,263.169 370.19,264.424 372.6,264.377 C 373.243,265.187 373.139,266.381 374.372,266.226 L 374.834,266.265 C 374.794,264.114 376.657,264.73 377.885,264.385 L 378.585,264.674 L 378.33,264.877 C 379.67,265.971 380.145,263.372 381.177,262.489 L 380.396,260.506 L 380.129,260.73 L 379.915,260.256 C 380.583,258.369 382.013,261.39 382.656,259.506 C 381.47,259.14 382.534,258.037 382.842,257.372 C 383.304,257.64 383.811,257.196 384.09,256.747 C 383.451,255.967 385.509,254.22 383.64,253.807 L 384.187,252.898 C 383.784,252.157 381.384,251.947 382.47,250.601 L 383.617,248.518 L 382.887,248.454 C 384.884,247.67 381.566,247.13 381.928,245.73 L 383.159,245.35 C 382.825,243.654 380.691,243.217 381.798,241.648 L 380.94,240.371 C 383.096,240.559 385.314,240.019 387.402,240.936 L 387.424,240.684 C 389.02,241.535 391.275,240.782 392.352,242.059 C 392.91,241.165 394.317,241.54 394.986,242.057 C 394.772,241.82 394.772,241.82 394.793,241.583 C 397.723,240.868 397.33,237.213 400.532,236.537 C 401.304,238.777 401.075,241.398 401.35,243.822 C 402.774,243.721 401.704,239.776 404.025,240.682 C 404.272,240.479 404.313,240.003 404.781,240.045 C 406.283,242.335 408.209,244.906 407.734,247.735 L 408.442,247.798 C 407.964,250.648 406.022,253.604 403.675,255.559 L 403.801,256.773 L 404.286,256.816 C 405.978,254.1 408.303,252.149 409.051,249.057 C 410.743,248.981 411.376,247.337 413.28,247.503 L 413.363,249.212 C 415.749,246.766 413.907,243.001 416.96,241.11 C 417.424,241.369 417.609,241.871 418.05,242.389 C 418.153,241.214 419.36,241.32 420.29,241.402 C 420.838,240.697 419.731,239.652 420.5,239.001 L 421.173,239.545 C 420.562,238.29 421.697,236.463 423.134,236.588 L 422.742,235.359 C 425.833,236.114 421.693,230.929 424.891,232.889 C 424.034,227.88 421.254,223.897 417.966,220.113 L 438.174,221.881 C 434.403,220.213 432.401,216.915 432.832,211.996 C 433.435,205.1 437.901,202.264 444.674,202.858 C 452.184,203.514 455.689,207.42 455.118,213.945 C 454.671,219.05 452.021,221.807 448.207,222.758 L 447.995,222.74 L 464.453,224.18 C 460.695,222.512 458.628,219.208 459.058,214.29 C 459.662,207.394 464.251,204.57 471.022,205.162 C 478.288,205.799 481.915,209.713 481.345,216.239 C 480.898,221.344 478.31,224.106 474.487,225.059 L 474.273,225.039 L 683.438,243.339 L 695.296,107.794 L 237.83,67.772 Z M 293.631,94.231 C 304.343,95.168 316.06,98.8 327.515,104.02 L 323.206,153.272 L 288.976,150.276 L 290.947,127.744 L 297.842,128.347 L 298.521,120.591 C 296.942,120.203 294.367,119.854 293.012,119.736 C 285.132,119.046 283.134,120.608 281.421,140.186 C 279.73,159.518 281.716,160.934 290.827,161.729 C 296.491,162.225 304.715,161.828 316.398,158.755 L 319.575,184.841 C 304.557,187.744 295.37,187.809 288.721,187.229 C 259.661,184.686 247.629,170.481 250.537,137.238 C 253.295,105.716 265.803,91.796 293.631,94.231 Z M 344.128,99.889 L 372.817,102.399 L 370.145,132.936 L 373.347,133.216 L 382.457,117.015 C 388.04,107.081 393.444,103.46 405.634,104.526 C 408.097,104.742 412.374,105.488 415.297,106.117 L 413.078,131.481 C 412.226,131.283 411.129,131.063 410.144,130.977 C 407.928,130.783 407.392,131.231 406.245,132.992 L 399.398,143.188 C 406.344,148.882 410.189,157.408 409.187,168.858 C 407.431,188.929 393.733,195.174 375.017,193.537 L 336.232,190.145 L 344.128,99.889 Z M 159.544,107.212 L 146.547,107.298 L 146.364,106.775 C 150.411,107.382 155.495,106.857 159.544,107.212 Z M 465.271,109.247 C 490.758,111.477 501.572,122.597 499.298,148.578 L 494.452,203.988 L 466.009,201.498 L 470.986,144.613 C 471.61,137.47 470.899,135.671 463.634,135.035 C 456.124,134.378 455.357,136.048 454.733,143.19 L 449.756,200.076 L 420.081,197.48 L 424.929,142.072 C 427.665,110.796 444.831,107.459 465.271,109.247 Z M 518.474,115.143 L 545.072,117.47 L 542.088,151.578 C 541.786,155.024 541.141,159.559 540.572,163.231 L 542.049,163.36 C 543.144,159.363 545.009,155.059 546.767,151.988 L 565.265,119.236 L 592.477,121.617 L 584.58,211.872 L 557.861,209.535 L 560.253,182.199 C 560.576,178.505 561.188,174.341 561.892,170.557 L 560.414,170.427 C 559.031,174.897 557.299,179.087 555.574,181.789 L 540.746,208.036 L 510.579,205.398 L 518.474,115.143 Z M 225.134,118.962 L 225.666,118.537 C 228.213,119.307 230.72,120.005 233.201,120.684 L 233.152,121.251 C 231.475,120.863 229.804,120.502 228.162,120.19 C 222.704,119.233 216.868,117.288 211.45,115.824 L 211.979,115.412 C 216.448,116.513 221.433,117.209 225.134,118.962 Z M 609.466,123.104 L 672.632,128.63 L 669.246,153.149 L 636.863,150.315 L 636.131,158.688 L 665.066,161.22 L 662.922,185.723 L 633.987,183.192 L 633.276,191.317 L 664.674,194.065 L 662.519,218.691 L 601.57,213.359 L 609.466,123.104 Z M 164.313,126.878 L 184.033,126.923 C 186.261,129.037 188.468,125.63 190.678,127.996 C 192.88,127.458 196.138,128.945 198.613,127.959 C 201.23,128.427 203.771,129.36 206.475,128.886 L 206.637,129.61 C 211.765,128.865 218.274,131.6 224.212,132.119 C 226.799,132.576 229.425,133.102 232.067,133.66 L 226.998,191.591 L 224.998,192.067 L 206.609,187.809 C 206.475,187.468 206.903,187.315 207.324,187.317 L 204.768,186.697 L 205.287,186.272 C 176.971,180.182 151.285,166.143 124.722,156.106 C 116.747,151.087 107.953,147.188 100.139,142.919 C 97.906,141.022 94.888,139.787 92.307,139.098 L 92.371,138.378 L 92.106,138.595 L 91.673,138.078 C 112.857,126.707 138,128.162 161.205,126.606 C 162.059,125.253 163.102,127.011 164.313,126.878 Z M 368.303,153.992 L 366.881,170.244 L 374.392,170.901 C 377.963,171.214 379.715,169.63 380.242,163.598 C 380.813,157.072 379.385,154.962 375.445,154.617 L 368.303,153.992 Z M 197.603,197.115 C 196.835,197.786 195.405,197.661 195.194,197.419 C 195.91,197.227 196.729,196.322 197.603,197.115 Z M 230.501,203.713 L 322.346,211.748 C 322.268,211.794 322.198,211.851 322.115,211.889 C 320.067,216.02 318.632,221.434 318.214,226.213 C 321.875,253.233 344.009,272.252 369.104,279.489 C 369.447,280.954 367.051,280.997 368.369,282.553 C 368.289,286.147 366.014,290.039 367.175,293.282 C 365.366,297.441 366.237,301.364 364.443,305.299 C 364.423,305.526 364.635,305.799 364.593,306.282 L 363.647,306.199 L 364.51,307.224 C 361.297,319.221 353.206,329.329 345.822,339.497 L 346.037,339.776 C 345.044,342.808 341.922,342.769 340.197,345.993 C 338.809,345.385 336.15,345.64 336.297,343.959 L 323.674,339.954 C 324.992,341.289 323.3,341.14 325.433,341.79 C 329.323,343.838 335.479,345.096 339.409,346.888 C 337.949,346.996 337.656,350.346 335.583,349.428 L 335.797,349.678 C 332.593,353.506 327.271,356.403 324.036,360.454 C 321.028,361.648 318.723,363.342 315.911,365.269 C 312.887,366.673 309.244,367.078 308.208,370.838 C 307.757,370.553 307.002,370.734 306.939,371.449 C 307.38,371.976 309.469,372.881 308.861,374.273 C 307.523,375.841 304.822,373.92 304.154,376.018 C 303.4,376.187 302.954,375.911 302.502,375.402 C 302.772,375.174 303.016,375.198 303.057,374.734 L 302.333,374.885 L 302.481,375.639 C 300.617,374.988 299.196,377.504 297.35,376.639 C 294.873,366.558 296.466,356.595 296.65,346.255 C 297.551,344.182 297.957,342.298 298.851,340.225 C 299.77,340.763 300.675,341.334 301.892,341.183 L 298.641,339.946 L 299.251,338.54 C 302.213,339.95 304.285,340.997 306.376,341.915 L 306.385,342.066 L 307.914,342.566 C 309.767,343.295 311.801,343.976 314.586,344.716 L 307.914,342.566 C 307.398,342.351 306.883,342.143 306.376,341.915 L 306.278,340.614 C 308.566,342.023 312.079,343.049 313.249,343.38 C 312.645,342.125 310.735,341.958 309.57,341.381 L 309.882,340.7 C 312.686,341.653 315.706,342.648 318.237,344.073 L 317.097,343.488 L 317.604,343.045 C 316.768,341.79 312.806,342.877 313.759,340.306 C 312.414,339.221 311.582,340.355 310.262,339.032 L 308.665,338.894 L 308.529,340.45 C 306.678,339.299 302.122,338.553 300.317,337.19 C 301.505,337.561 302.247,337.122 303.285,336.254 C 303.816,338.157 307.064,337.78 308.537,338.312 C 308.759,338.101 309.118,337.959 309.397,337.984 C 310.762,338.825 312.248,338.234 313.382,339.053 L 313.904,338.644 C 316.894,340.345 319.068,342.941 322.617,343.484 L 318.229,341.432 C 319.193,341.515 320.602,341.868 321.836,341.476 C 321.206,340.463 319.277,340.553 318.168,339.471 C 318.146,339.724 318.613,339.765 318.573,340.23 C 315.958,339.765 314.503,337.496 312.181,336.325 L 312.192,336.194 L 313.351,336.657 L 312.225,335.824 L 312.192,336.194 L 311.033,335.72 C 308.289,334.295 304.524,333.255 301.741,332.04 C 301.867,330.592 303.701,331.492 304.65,331.811 C 309.024,333.859 313.938,335.506 318.863,336.911 L 318.439,336.368 L 318.948,335.945 C 312.872,333.984 307.663,332.803 302.426,329.69 C 303.222,328.795 303.805,330.303 304.817,329.898 L 303.18,329.278 L 303.455,328.816 L 311.387,331.674 C 310.846,332.351 311.809,332.437 312.25,332.726 C 313.944,332.622 315.07,333.453 316.977,333.618 L 316.705,334.061 C 317.374,334.864 319.277,335.03 319.57,334.571 L 303.019,328.307 L 303.539,327.858 L 303.04,328.066 C 305.252,322.01 307.575,314.976 311.174,309.286 L 310.775,308.553 C 313.352,303.717 316.467,298.444 319.054,293.635 C 318.827,293.617 318.579,293.349 318.389,293.086 L 319.685,291.989 C 317.886,290.385 321.636,288.799 321.051,287.053 C 320.922,285.862 321.719,285.194 322.508,284.312 L 322.969,284.592 C 323.263,283.894 323.789,283.454 324.311,283.017 L 323.584,282.953 L 323.934,281.802 C 323.915,282.019 323.686,281.78 323.449,281.759 C 324.083,280.1 325.902,278.359 326.549,276.489 L 326.739,277.217 L 327.515,276.575 L 326.368,275.963 L 327.432,274.859 L 328.101,275.418 C 327.432,274.859 329.728,273.407 329.357,271.907 C 329.66,272.466 330.039,272.062 330.481,271.876 L 329.625,271.931 L 331.801,268.997 C 327.682,269.122 327.471,274.42 323.975,275.752 C 325.376,276.388 323.157,276.903 323.806,277.683 C 323.305,277.885 322.84,277.846 322.324,278.286 C 322.798,278.328 322.777,278.565 323.01,278.586 C 322.758,278.789 322.014,278.954 322.054,278.502 C 321.485,279.428 321.32,281.307 320.204,280.497 C 319.58,279.467 318.603,279.381 317.385,279.514 C 314.958,282.683 311.292,285.976 310,289.695 C 305.786,293.903 302.083,297.915 297.696,301.147 C 295.478,304.566 291.059,305.605 287.918,308.45 C 286.409,309.29 285.831,310.444 283.631,310.733 C 280.55,313.104 276.014,315.35 272.97,317.265 C 272.787,317.183 272.598,317.148 272.412,317.091 C 272.12,316.803 271.162,316.799 270.633,316.579 C 271.323,316.815 271.878,316.928 272.412,317.091 C 272.501,317.165 272.542,317.28 272.478,317.433 C 266.844,315.756 262.022,313.17 256.984,310.324 L 256.23,310.484 L 258.724,312.178 C 252.963,309.48 245.454,307.393 241.429,303.923 L 241.935,303.734 C 240.385,302.14 238.228,301.95 236.427,300.575 L 235.885,301.265 C 234.086,299.905 230.446,300.049 230.416,297.897 L 228.079,296.971 L 223.953,294.695 C 223.696,294.905 224.119,295.428 223.635,295.617 C 223.403,295.596 223.179,295.346 222.942,295.325 L 223.466,294.885 L 215.39,290.803 C 219.321,284.665 227.172,279.798 231.254,274.415 C 233.997,273.428 235.313,272.095 236.945,269.846 L 236.465,269.803 C 237.679,269.678 237.497,266.273 239.515,267.898 L 237.47,269.407 C 240.399,268.694 242.076,266.211 244.394,264.474 L 243.935,263.983 C 246.191,263.207 245.591,261.938 247.959,262.147 L 246.946,262.773 C 249.42,262.057 251.985,260.343 254.543,258.623 L 253.829,258.35 C 254.942,256.766 256.655,256.188 258.161,255.606 C 258.204,255.122 257.724,255.079 257.767,254.588 C 258.247,254.631 258.517,254.169 258.773,253.963 L 259.441,254.476 L 262.228,253.057 L 262.036,252.575 C 263.297,251.691 265.113,250.419 266.814,250.1 L 266.62,249.598 C 270.555,248.743 273.465,245.619 277.379,244.998 C 276.703,244.23 275.644,245.561 275.286,244.105 C 277.504,243.566 278.362,241.725 280.365,240.957 C 279.262,239.884 277.65,241.898 276.29,240.816 C 276.268,241.062 276.437,241.792 275.678,242.2 L 275.237,241.687 L 259.965,248.51 C 257.246,246.841 253.203,248.908 250.043,249.35 L 251.342,248.26 C 245.392,250.381 239.118,250.57 232.632,250.467 L 232.528,251.667 C 227.35,250.493 221.662,252.147 216.41,251.687 C 216.367,252.182 215.872,252.139 215.61,252.598 C 207.748,251.91 196.228,251.63 188.076,251.376 L 185.74,250.453 L 187.921,250.174 C 186.739,249.809 184.643,249.174 183.363,249.997 C 184.076,250.061 184.581,249.882 185.064,249.924 C 182.765,251.394 179.35,249.162 175.715,249.575 C 169.928,249.79 163.147,247.526 157.38,247.503 C 156.803,248.402 155.923,247.598 155.943,247.378 L 155.923,247.598 C 153.393,246.441 150.034,246.147 146.877,246.585 C 141.911,245.669 136.186,244.934 131.473,244.035 C 158.665,216.796 193.994,207.585 230.501,203.713 Z M 128.718,247.858 L 142.508,252.434 C 144.606,253.104 147.297,252.854 149.106,254.213 C 180.653,261.799 212.955,260.786 242.951,258.82 C 241.925,259.7 239.315,259.234 239.893,260.955 C 237.78,260.299 237.829,262.475 236.403,262.35 L 236.342,263.052 C 227.78,267.337 220.053,276.299 211.729,283.023 L 211.576,282.312 C 211.034,282.743 210.285,283.164 210.475,283.644 C 209.049,283.767 207.834,286.536 205.684,286.346 C 198.041,283.049 190.699,278.78 183.359,275.009 L 181.429,274.838 L 181.945,274.428 C 164.175,265.871 145.959,257.076 128.447,248.312 L 128.718,247.858 Z M 155.276,279.786 C 154.768,279.974 154.582,279.479 154.325,279.457 C 154.624,279.005 155.318,279.311 155.276,279.786 Z M 233.709,301.39 C 233.444,301.252 233.201,301.125 233.021,301.014 C 233.269,301.109 233.494,301.243 233.709,301.39 Z M 224.392,303.394 L 223.409,303.545 C 224.289,304.574 225.983,304.489 226.341,305.97 C 224.976,304.888 224.415,305.802 223.221,305.696 L 223.16,306.394 C 222.066,305.346 219.208,304.854 217.849,304.01 L 220.479,304.239 C 220.251,304.023 219.981,303.881 219.718,303.751 C 220.044,303.868 220.385,303.905 220.744,303.763 C 221.147,304.785 222.609,304.678 223.263,305.209 L 222.84,304.7 C 223.076,304.721 223.304,304.739 223.326,304.489 C 221.967,303.653 220.065,303.252 219.286,301.247 C 221.172,301.665 222.778,302.752 224.392,303.394 Z M 237.118,303.545 C 235.688,303.609 234.906,302.203 233.709,301.39 C 234.802,301.95 236.425,302.717 237.118,303.545 Z M 216.521,302.461 C 217.526,302.075 218.393,303.019 219.3,303.549 C 220.09,303.67 220.744,303.763 220.744,303.763 C 220.368,303.773 219.968,303.717 219.558,303.648 C 219.505,303.618 219.438,303.614 219.376,303.591 C 219.402,303.596 219.425,303.613 219.451,303.622 C 219.175,303.574 218.907,303.515 218.642,303.437 C 218.83,303.475 219.01,303.501 219.185,303.53 C 218.759,303.385 218.316,303.28 217.881,303.208 C 216.371,302.691 215.36,302.052 216.521,302.461 Z M 208.449,304.155 C 208.217,304.135 207.967,304.113 207.946,304.359 L 213.95,307.277 L 214.472,306.829 L 212.632,305.993 C 214.131,306.484 215.791,306.721 216.021,308.178 C 216.041,307.945 216.297,307.967 216.319,307.717 C 219.894,308.282 223.433,311.734 227.514,311.588 C 227.595,310.66 226.364,311.006 225.694,310.493 C 227.368,310.64 230.088,312.54 231.605,311.463 C 228.705,309.053 225.985,310.017 222.591,307.54 C 225.42,308.28 227.218,309.42 229.834,310.101 L 229.172,309.092 L 229.938,308.911 C 230.274,310.379 232.614,310.596 233.811,310.7 C 233.837,310.778 233.84,310.894 233.813,311.204 L 234.044,311.224 L 233.528,311.631 L 234.004,311.674 L 232.769,312.048 L 234.574,313.424 C 233.442,312.609 233.083,313.988 233.083,313.988 C 228.14,312.862 223.287,310.518 218.616,308.907 C 221.298,311.295 225.066,312.338 228.351,313.113 C 230.879,314.545 234.153,315.54 236.769,315.769 C 240.514,317.066 244.153,319.303 247.735,319.618 C 248.506,319.2 248.114,318.196 247.382,318.131 L 249.343,318.061 L 248.925,317.316 L 250.041,318.122 C 252.17,317.687 253.688,320.108 255.347,320.38 L 254.162,320.433 C 252.774,319.806 251.478,318.247 250.019,318.363 C 249.746,318.845 251.393,319.221 252.044,319.993 C 250.897,319.41 249.472,319.285 248.342,318.216 L 248.174,320.14 C 250.07,320.54 251.877,321.898 253.303,322.023 L 253.05,322.238 L 253.468,322.76 C 252.255,323.131 250.264,321.045 250.351,322.721 C 250.83,322.765 252.696,323.41 253.323,324.431 L 252.334,324.829 L 252.549,325.101 C 246.504,328.178 239.26,328.726 232.776,331.281 C 226.989,331.496 222.058,332.747 216.446,333.709 C 215.92,334.151 215.627,334.838 214.692,334.528 C 214.209,334.484 213.23,334.629 213.393,335.592 C 208.074,335.864 203.333,335.217 198.429,336.463 L 197.847,337.379 C 196.07,338.437 193.723,337.967 192.37,339.549 C 193.994,326.474 198.626,314.837 205.611,303.664 L 207.234,304.517 C 207.774,303.614 205.892,303.217 206.153,302.988 L 206.645,302.799 C 206.562,303.747 207.755,303.851 208.449,304.155 Z M 217.881,303.208 C 218.117,303.29 218.381,303.368 218.642,303.437 C 217.565,303.269 216.468,303.057 216.479,302.937 C 216.903,303.061 217.386,303.131 217.881,303.208 Z M 219.558,303.648 C 219.614,303.67 219.66,303.721 219.718,303.751 C 219.626,303.717 219.54,303.67 219.451,303.622 C 219.485,303.635 219.524,303.639 219.558,303.648 Z M 226.528,303.816 L 227.933,304.174 L 226.968,304.092 L 226.528,303.816 Z M 238.274,304.105 L 253.741,311.479 C 248.399,309.573 243.082,306.941 238.274,304.105 Z M 229.463,305.751 C 234.066,308.319 239.502,309.51 243.819,312.315 C 240.067,311.247 236.343,309.721 232.892,307.988 C 230.632,306.345 225.755,307.101 225.778,304.203 C 227.151,304.592 228.244,306.135 229.463,305.751 Z M 230.271,305.096 L 233.728,306.614 L 233.501,306.596 L 230.271,305.096 Z M 225.526,307.079 C 225.019,307.299 223.16,306.394 223.915,306.229 C 223.603,306.911 225.817,306.394 225.526,307.079 Z M 239.692,307.355 L 241.958,308.781 C 241.267,308.458 240.074,308.121 239.584,308.574 C 239.584,308.574 239.565,308.799 239.8,308.821 C 239.043,309.239 238.205,307.711 237.396,308.609 C 237.686,308.144 237.686,308.144 237.501,307.415 L 239.127,308.269 L 239.692,307.355 Z M 225.731,307.362 L 225.966,307.381 L 226.386,308.131 L 225.731,307.362 Z M 222.507,308.51 L 221.774,308.682 C 220.876,307.881 222.298,308.242 222.507,308.51 Z M 227.806,308.256 L 228.455,309.265 L 227.304,308.445 L 227.806,308.256 Z M 245.578,311.476 C 244.504,309.95 242.725,311.017 241.855,309.954 C 243.19,308.394 245.162,310.726 245.578,311.476 Z M 233.856,310.704 L 233.811,310.7 L 233.813,310.681 C 233.825,310.682 233.838,310.704 233.856,310.704 Z M 248.678,311.747 L 249.638,311.833 L 249.386,312.062 L 248.678,311.747 Z M 244.787,315.01 C 242.627,314.823 241.1,313.278 238.984,312.592 C 240.614,313.237 243.695,313.73 244.787,315.01 Z M 266.028,319.519 L 262.846,320.221 C 257.109,317.058 251.458,315.596 245.64,313.427 C 245.924,312.786 246.834,313.566 247.544,313.592 C 247.614,313.535 247.668,313.566 247.73,313.558 C 247.756,313.579 247.756,313.579 247.778,313.614 C 247.707,313.631 247.623,313.592 247.55,313.592 L 253.13,315.742 C 255.126,314.967 256.084,317.709 258.246,317.648 C 258.224,317.894 258.978,317.712 258.79,317.207 C 255.627,314.776 253.17,315.285 249.532,313.032 C 255.435,314.031 260.648,317.858 266.028,319.519 Z M 267.518,318.945 C 262.845,317.562 258.002,315.217 253.356,313.148 C 258.023,314.984 262.699,316.367 267.518,318.945 Z M 248.257,313.656 C 248.095,313.642 247.918,313.54 247.73,313.558 C 247.584,313.364 247.541,313.341 247.351,313.324 C 247.8,313.363 248.066,313.385 248.257,313.656 Z M 236.472,313.591 L 237.144,314.342 L 236.896,314.321 L 236.221,313.802 L 236.472,313.591 Z M 242.48,316.518 C 241.073,316.394 240.178,315.359 239,315.256 C 239.235,315.278 239.446,315.295 239.468,315.039 L 237.183,313.885 C 239.571,313.863 240.912,315.424 242.48,316.518 Z M 375.933,314.255 L 376.583,315.009 C 376.016,326.984 380.583,337.967 385.216,348.474 C 385.734,350.67 387.972,352.329 387.867,353.519 C 388.286,354.528 388.627,355.98 389.856,355.618 C 389.833,355.877 389.815,356.086 390.049,356.364 L 389.276,356.777 C 390.677,357.617 391.932,359.653 392.288,360.881 L 357.061,351.308 C 365.704,340.502 372.103,327.859 375.933,314.255 Z M 246.942,314.989 L 247.377,315.493 L 247.162,315.476 L 246.705,315.178 L 246.942,314.989 Z M 296.902,315.967 L 297.28,317.211 L 297.777,316.799 C 297.072,319.587 295.354,322.571 293.933,325.092 L 286.685,322.54 L 288.775,320.803 L 288.796,320.57 C 291.753,319.613 293.504,316.156 296.902,315.967 Z M 249.914,316.919 L 249.64,317.381 C 248.968,316.837 249.66,317.147 249.914,316.919 Z M 253.721,317.252 L 255.582,317.898 L 255.561,318.131 L 253.721,317.252 Z M 253.886,317.984 L 255.295,318.582 L 254.583,318.519 L 253.886,317.984 Z M 252.899,318.372 L 253.617,318.433 L 253.596,318.674 L 252.879,318.613 L 252.899,318.372 Z M 257.647,319.273 L 262.325,320.642 C 260.609,320.997 258.685,321.061 257.647,319.273 Z M 258.036,320.032 L 257.323,319.971 C 257.454,320.109 257.574,320.325 257.69,320.497 L 257.112,319.953 C 257.604,319.764 257.604,319.764 258.036,320.032 Z M 257.971,320.765 L 257.69,320.497 C 257.785,320.642 257.877,320.756 257.971,320.765 Z M 293.158,328.401 C 291.67,328.747 289.598,327.837 288.171,327.712 L 288.61,328.256 C 286.247,327.544 284.197,326.418 282.126,325.267 C 286,324.885 289.408,327.351 293.158,328.401 Z M 279.903,326.043 L 280.822,326.364 L 281.082,326.144 L 281.959,327.169 C 281.246,326.872 279.882,326.282 279.903,326.043 Z M 291.353,327.044 L 293.433,327.94 L 293.2,327.92 L 291.353,327.044 Z M 278.336,327.355 C 281.35,328.799 286.059,329.699 289.094,330.933 C 288.114,331.095 286.971,330.264 286.689,330.97 C 287.892,331.381 288.511,331.526 289.062,331.553 C 288.993,331.609 288.964,331.7 289.01,331.898 L 290.647,332.252 L 290.14,332.707 L 291.499,333.543 L 290.962,334.22 C 289.621,333.131 287.063,332.212 285.829,332.329 L 288.846,333.778 C 283.847,333.113 279.277,330.321 274.653,328.213 C 275.157,327.795 276.038,328.823 276.374,327.903 C 276.971,329.39 279.632,329.135 280.911,330.7 C 281.981,329.592 284.448,331.709 285.913,331.367 C 284.16,329.532 281.119,328.316 278.295,327.832 C 278.308,327.911 278.358,327.924 278.387,327.984 L 277.139,327.476 C 277.389,327.273 277.912,326.815 278.336,327.355 Z M 282.631,327.733 L 283.355,327.795 L 283.801,328.061 L 282.631,327.733 Z M 278.387,327.984 L 279.613,328.476 C 279.139,328.428 278.603,328.449 278.387,327.984 Z M 290.666,329.385 C 289.935,329.549 289.512,328.812 289.055,328.519 L 289.323,328.316 C 289.763,328.582 290.959,328.687 290.666,329.385 Z M 284.494,328.372 L 284.956,328.653 L 284.717,328.631 L 284.494,328.372 Z M 282.92,329.91 C 282.188,330.096 281.981,329.592 281.286,329.531 C 281.981,329.592 282.464,329.634 282.92,329.91 Z M 292.55,329.778 L 293.012,330.069 L 292.736,330.532 L 292.55,329.778 Z M 277.555,330.894 L 278.506,330.979 C 278.005,331.147 277.793,330.915 277.555,330.894 Z M 306.739,335.342 C 305.362,334.51 303.725,334.135 302.36,333.066 C 303.725,334.135 305.922,333.862 306.739,335.342 Z M 300.926,333.152 L 301.841,333.73 L 301.344,333.687 L 300.926,333.152 Z M 218.837,333.918 L 219.08,333.937 L 219.058,334.191 L 218.815,334.17 L 218.837,333.918 Z M 302.154,334.161 L 306.907,336.092 L 307.225,336.579 C 305.313,336.22 302.289,334.963 302.154,334.161 Z M 308.313,336.694 C 308.374,335.993 308.592,338.286 308.13,337.989 L 307.225,336.579 C 307.651,336.664 308.042,336.712 308.313,336.694 Z M 311.174,336.945 L 312.329,337.306 L 312.097,337.285 L 311.174,336.945 Z M 309.677,337.523 L 309.439,337.504 L 309.004,337.015 C 309.738,336.819 308.73,337.221 309.677,337.523 Z M 305.509,341.026 C 305.297,341.006 305.047,340.767 305.069,340.509 C 305.047,340.767 305.8,340.573 305.509,341.026 Z M 418.49,341.769 L 415.517,345.595 C 415.915,343.95 417.249,342.393 418.49,341.769 Z M 361.706,353.156 L 381.405,358.73 L 380.959,358.691 L 361.706,353.156 Z M 404.307,358.307 L 398.861,362.665 C 399.07,360.277 401.306,359.756 402.6,358.66 C 403.008,359.181 403.841,358.049 404.307,358.307 Z M 386.811,360.403 C 385.187,359.777 383.01,359.836 381.866,359.023 C 383.748,359.651 385.208,359.543 386.811,360.403 Z" marker-start="none" marker-end="none"/>
   <path d="M 314.15,426.683 L 313.393,426.868 L 314.129,426.932 L 314.15,426.683 Z" marker-start="none" marker-end="none"/>
   <path d="M 315.551,427.057 C 315.825,426.592 314.862,426.747 314.381,426.704 C 314.623,426.726 315.048,427.26 315.551,427.057 L 315.551,427.057 Z" marker-start="none" marker-end="none"/>
   <path d="M 318.483,426.586 C 319.678,426.69 321.37,426.599 322.52,427.178 C 322.477,427.661 321.794,427.114 321.538,427.329 C 322.753,427.2 325.076,428.139 325.889,426.993 C 326.413,426.79 326.891,426.832 327.105,427.101 C 327.525,427.855 328.588,426.497 328.734,427.721 C 328.441,428.183 328.234,427.915 327.998,427.897 C 330.331,428.599 333.224,425.713 335.704,427.851 L 335.662,428.329 C 337.322,428.234 338.994,428.621 340.459,428.269 L 336.902,427.709 C 337.447,426.803 338.312,428.079 339.347,427.2 C 340.481,428.022 342.026,426.953 342.825,428.713 L 342.45,427.471 C 344.368,427.879 346.82,427.142 347.904,428.433 L 347.66,428.411 C 348.493,427.286 350.741,428.919 352.239,428.329 L 357.77,428.329 C 357.556,428.079 357.619,427.368 358.336,427.432 L 359.272,427.743 C 359.002,427.967 358.746,428.183 358.517,428.165 C 359.406,428.957 361.409,427.928 362.859,428.057 C 363.101,427.849 361.45,427.45 362.712,426.838 L 364.046,428.161 L 364.613,427.006 C 365.321,427.066 366.999,427.449 367.142,428.431 C 367.872,428.493 366.977,427.7 367.226,427.467 C 367.564,426.549 368.608,428.329 368.5,426.863 C 369.202,426.924 370.307,427.993 371.117,427.092 C 372.949,427.97 374.745,426.695 376.603,427.571 C 378.844,426.566 381.373,427.759 383.847,427.256 C 383.89,426.773 383.159,426.711 383.202,426.221 L 383.471,426.018 C 384.991,428.075 389.652,426.786 391.864,426.286 C 392.093,426.519 391.804,426.975 392.277,427.017 C 392.802,426.583 393.372,425.415 394.565,425.522 L 394.774,426.04 C 394.73,426.536 394.247,426.496 393.769,426.454 L 393.534,426.433 L 393.285,426.411 C 393.688,427.381 394.478,426.515 395.206,426.579 C 394.979,426.312 395.523,425.875 396.029,425.648 C 395.985,426.148 396.423,426.437 396.156,426.877 C 398.619,426.144 401.685,426.644 403.463,425.605 C 404.191,425.428 404.949,424.993 405.887,425.329 L 405.366,425.769 C 406.824,425.898 408.273,425.785 409.064,424.903 C 409.761,425.198 410.681,425.497 410.783,424.329 C 410.913,425.768 413.865,424.824 415.286,425.177 C 416.159,423.587 417.792,424.209 419.488,423.877 C 419.721,424.135 419.446,424.354 419.425,424.588 L 420.709,423.5 C 421.417,423.799 420.935,424.005 420.626,424.457 C 421.817,424.799 422.609,423.903 423.779,424.254 C 422.884,423.69 421.817,424.799 421.173,423.778 C 420.731,423.251 421.687,423.586 421.73,423.101 C 422.821,424.407 424.202,422.364 424.522,424.071 C 424.867,423.143 425.517,423.92 425.975,423.961 C 431.17,422.48 437.362,423.022 442.537,421.573 L 442.116,421.049 C 443.594,420.458 445.696,421.362 445.844,419.673 C 447.012,420.036 447.076,421.97 448.873,420.687 L 450.058,421.023 L 449.625,420.484 C 450.359,420.329 450.824,420.372 450.99,421.105 L 450.781,420.855 L 452.018,420.476 L 451.579,419.94 L 453.485,420.105 L 452.37,419.289 C 453.132,415.967 457.073,417.786 458.587,416.962 L 458.608,416.713 C 459.577,416.532 460.266,416.859 461.501,416.484 C 461.183,417.418 459.492,417.506 458.504,417.911 L 458.734,417.931 L 458.187,418.599 L 457.541,417.825 L 453.416,418.182 C 454.11,418.471 455.108,418.079 455.529,418.846 L 453.332,419.143 C 454.28,419.225 455.615,420.79 456.449,419.415 C 457.777,420.716 459.192,418.2 460.301,419.264 C 461.141,417.903 462.231,419.182 463.457,419.058 C 462.834,417.798 464.298,417.462 465.264,417.545 L 461.937,417.006 C 462.226,416.311 464.072,417.191 464.423,416.018 L 465.389,416.101 C 463.771,415.48 465.577,413.967 464.907,413.191 C 465.787,411.566 466.383,413.066 467.628,412.459 C 469.404,411.638 471.316,411.562 473.262,411.272 L 472.719,411.928 C 475.099,412.135 477.53,409.483 479.263,411.312 C 481.139,411.961 481.873,409.114 483.866,411.01 C 488.383,408.98 494.496,410.463 498.767,408.441 L 499.881,409.269 C 500.164,409.04 500.206,408.566 500.673,408.608 C 500.225,408.329 499.516,408.015 499.124,407.267 L 500.111,406.635 C 499.91,406.39 499.389,406.812 499.23,406.057 C 505.777,405.198 512.063,404.793 518.336,404.621 L 518.401,403.894 C 505.61,404.457 492.719,405.989 480.207,406.325 C 479.561,405.32 478.466,406.911 478.111,405.428 C 479.603,404.842 481.892,405.997 483.657,405.196 L 484.413,404.76 C 484.514,406.489 486.543,405.22 487.548,404.803 C 490.402,405.053 494.741,404.961 497.931,404.277 C 498.19,404.045 497.993,403.561 498.475,403.604 L 498.664,404.088 C 500.384,403.518 501.887,402.936 503.54,403.325 L 503.72,404.062 C 507.344,403.915 510.358,402.488 513.918,402.799 C 512.314,401.92 509.328,403.101 507.196,402.915 C 496.341,403.164 485.667,404.42 474.552,404.881 C 473.241,405.967 471.189,404.823 469.467,405.385 C 464.363,405.91 458.565,406.122 453.924,406.915 C 451.613,406 448.584,407.657 445.687,407.67 C 444.422,408.263 442.989,405.493 442.567,407.609 C 441.826,407.782 440.335,408.39 439.706,407.359 L 370.391,413.334 C 332.376,416.256 288.773,411.704 251.459,400.993 C 210.323,387.53 175.459,362.354 143.026,331.862 C 138.422,326.647 133.146,321.151 127.505,316.798 C 125.757,314.958 124.776,312.217 122.513,310.582 L 122.046,310.54 C 129.973,327.117 146.444,342.015 158.731,355.609 C 162.726,359.566 167.995,362.42 170.981,366.769 L 170.75,366.751 C 174.917,368.545 178.279,374.138 182.644,376.44 C 182.909,376.224 182.929,375.997 183.163,376.017 C 183.393,376.265 183.624,376.286 183.603,376.523 L 183.351,376.754 C 185.797,378.907 189.5,380.681 192.189,382.816 C 195.972,386.527 200.702,387.173 204.236,390.851 C 207.251,392.088 209.451,394.433 213.011,394.961 C 213.386,396.226 214.782,396.816 215.961,397.157 L 215.981,396.92 C 223.07,400.933 231.17,404.764 238.8,408.07 L 239.552,407.651 C 241.032,410.2 244.277,408.786 246.231,411.109 C 247.777,410.07 250.268,411.713 251.898,412.345 C 250.894,412.95 249.997,411.937 249.304,411.629 C 249.744,412.397 252.06,413.323 253.076,412.687 C 254.119,414.45 256.829,413.971 258.157,415.053 C 258.346,415.54 258.198,414.592 258.45,414.368 C 259.95,416.418 264.306,416.312 266.425,416.73 L 270.403,418.049 C 269.873,418.717 267.811,417.338 266.382,417.213 L 276.721,420.039 L 277.23,419.595 C 277.627,420.6 280.242,421.078 281.432,421.182 L 281.223,420.914 C 281.724,420.476 282.435,420.79 283.146,420.854 L 281.894,421.462 C 283.567,421.368 285.413,422.484 286.933,421.661 L 287.375,422.17 L 286.369,422.566 L 288.277,422.734 L 288.319,422.254 L 289.728,422.377 L 289.665,423.092 C 291.987,424.268 292.154,422.359 294.646,424.01 L 294.221,423.489 C 294.932,423.553 296.185,423.194 296.59,423.945 L 294.89,424.032 C 295.328,424.558 296.294,424.405 297.004,424.467 C 296.856,423.721 297.573,423.545 298.073,423.591 C 298.758,423.888 299.202,424.173 299.915,424.471 C 299.562,425.407 299.182,424.407 298.694,424.614 C 299.956,426.648 300.082,422.562 301.025,425.299 C 301.321,424.845 301.384,424.118 302.096,424.181 L 302.283,424.678 L 302.033,424.907 L 303.222,425.01 C 303.222,425.01 303.017,424.743 303.244,424.764 C 303.265,424.528 303.265,424.528 303.51,424.549 L 303.951,425.075 L 303.686,425.29 L 307.445,426.346 L 307.529,425.388 L 311.323,425.959 L 309.831,426.556 L 312.687,426.806 L 312.284,426.043 C 314.004,425.467 315.33,426.786 317.288,426.48 L 316.995,427.183 L 318.42,427.307 L 318.483,426.586 L 318.483,426.586 Z" marker-start="none" marker-end="none"/>
   <path d="M 327.248,428.079 C 327.546,427.618 325.848,427.471 325.806,427.954 L 327.248,428.079 L 327.248,428.079 Z" marker-start="none" marker-end="none"/>
   <path d="M 335.185,428.045 L 333.691,428.644 L 335.164,428.286 L 335.185,428.045 Z" marker-start="none" marker-end="none"/>
   <path d="M 345.945,428.747 L 345.967,428.502 L 344.964,428.902 C 345.206,428.923 345.685,428.966 345.945,428.747 L 345.945,428.747 Z" marker-start="none" marker-end="none"/>
   <path d="M 291.587,423.26 L 291.587,423.26 L 290.921,422.733 L 290.901,422.963 L 291.587,423.26 Z" marker-start="none" marker-end="none"/>
   <path d="M 387.011,426.795 L 386.989,427.045 L 387.965,426.881 L 387.759,426.622 L 387.011,426.795 Z" marker-start="none" marker-end="none"/>
   <path d="M 430.876,422.948 C 430.897,422.704 430.438,422.415 430.207,422.394 C 430.416,422.664 430.645,422.928 430.876,422.948 L 430.876,422.948 Z" marker-start="none" marker-end="none"/>
   <path d="M 451.243,418.22 L 451.221,418.47 L 452.187,418.553 L 452.208,418.303 L 451.243,418.22 Z" marker-start="none" marker-end="none"/>
   <path d="M 465.946,418.07 L 465.741,417.588 L 465.883,418.786 C 465.883,418.786 466.405,418.363 465.946,418.07 L 465.946,418.07 Z" marker-start="none" marker-end="none"/>
   <path d="M 467.777,418.95 L 467.757,419.187 L 468.503,419.015 L 468.522,418.786 L 467.777,418.95 Z" marker-start="none" marker-end="none"/>
   <path d="M 469.706,418.89 C 469.727,418.653 469.241,418.851 468.777,418.808 C 469.004,418.829 469.431,419.334 469.706,418.89 L 469.706,418.89 Z" marker-start="none" marker-end="none"/>
   <path d="M 470.711,418.488 C 470.04,417.963 470.796,417.514 471.066,417.084 C 470.334,417.259 470.165,416.519 470.438,416.066 C 469.915,416.497 468.732,416.394 469.027,415.941 C 469.235,416.191 469.172,416.918 468.923,417.135 C 468.401,417.571 467.712,417.243 467.212,417.2 C 467.861,418.002 466.488,417.403 466.667,418.134 C 468.168,417.285 469.305,418.129 470.711,418.488 L 470.711,418.488 Z" marker-start="none" marker-end="none"/>
   <path d="M 473.159,417.988 L 472.616,418.653 L 473.138,418.234 L 473.159,417.988 Z" marker-start="none" marker-end="none"/>
   <path d="M 475.664,417.001 C 475.241,416.247 472.741,417.23 473.632,415.394 C 474.868,414.78 475.285,415.752 476.215,416.086 L 475.936,416.545 C 477.407,416.437 477.006,418.058 478.302,416.754 L 477.673,415.961 C 477.905,415.98 477.693,415.751 477.715,415.5 C 477.428,416.191 476.254,415.625 475.829,415.1 C 477.658,413.569 478.105,416.497 479.813,416.148 C 480.142,417.877 481.524,415.834 481.941,416.834 L 481.706,416.566 C 482.257,415.661 483.095,416.933 483.832,416.997 C 482.914,416.42 483.957,415.575 484,415.073 C 481.389,414.631 479.707,417.355 478.469,414.845 C 480.267,413.565 479.116,415.875 480.826,415.536 L 479.704,414.698 L 486.066,413.588 L 486.254,414.088 L 498.683,412.307 L 500.004,413.609 C 498.477,411.767 501.048,412.514 501.592,411.808 C 505.379,412.627 509.862,410.859 513.473,410.927 C 516.12,410.69 519.737,410.522 522.625,410.528 C 529.474,409.444 536.127,407.618 543.74,408.519 C 542.022,408.868 539.296,406.92 537.774,407.997 C 535.622,407.808 531.755,407.97 529.847,407.803 C 528.739,409.38 526.513,407.26 524.756,408.29 C 524.98,408.308 524.692,409.026 524.916,409.045 C 525.885,409.13 526.888,408.75 527.56,409.036 C 526.304,409.644 524.064,410.653 523.008,409.121 C 520.969,407.506 518.586,410.174 516.745,408.808 L 515.991,409.457 C 515.77,409.225 515.814,408.726 515.336,408.683 C 514.375,411.489 511.379,409.79 509.754,409.402 L 509.966,409.665 C 509.004,409.583 507.725,410.424 507.371,409.194 L 506.886,409.152 C 506.611,409.605 507.329,409.669 507.288,410.148 C 506.759,410.588 506.321,410.065 505.589,410.237 L 506.152,409.334 C 505.379,409.751 505.337,410.213 504.225,409.397 L 503.73,409.354 C 503.925,409.855 504.376,410.131 504.098,410.841 C 503.862,410.571 502.662,410.933 502.745,409.988 L 502.766,409.754 L 501.962,410.653 C 501.779,409.668 501.217,410.588 500.506,410.527 C 498.811,410.842 496.99,409.484 495.44,410.807 C 496.378,411.131 497.177,410.234 498.1,410.535 C 497.785,411.476 495.379,411.496 494.433,411.183 C 493.577,409.92 492.197,411.95 490.54,411.806 L 489.902,410.786 L 489.118,411.47 L 489.556,411.959 L 489.836,411.532 C 491.17,412.838 493.454,411.325 494.839,411.971 C 491.34,413.557 486.921,411.98 484.077,411.48 L 483.741,412.433 L 483.288,412.148 C 482.758,413.052 480.834,412.638 479.725,411.837 C 479.892,412.556 477.504,412.346 476.729,413.023 L 475.553,412.668 C 476.381,414.195 478.418,412.918 479.806,413.523 L 479.849,413.043 L 483.702,412.889 C 478.949,414.888 472.298,414.049 466.677,415.252 C 468.027,416.087 470.849,414.178 472.608,416.017 L 470.899,416.338 L 472.783,416.747 L 472.197,417.903 C 472.545,416.726 474.639,417.397 475.664,417.001 L 475.664,417.001 Z" marker-start="none" marker-end="none"/>
   <path d="M 468.712,416.631 C 468.23,416.588 467.337,415.795 467.253,416.75 L 468.712,416.631 L 468.712,416.631 Z" marker-start="none" marker-end="none"/>
   <path d="M 485.604,415.954 C 487.339,415.364 489.199,416.032 490.246,415.156 C 492.407,417.747 492.763,413.682 495.316,414.881 C 496.186,415.928 496.759,415.006 497.887,415.824 C 498.414,415.385 497.969,414.881 497.722,414.859 C 498.267,414.161 499.795,415.989 499.725,414.048 C 498.743,414.204 497.764,414.364 496.572,414.26 L 497.595,413.647 L 495.684,413.479 L 496.376,413.755 C 496.108,414.22 495.814,414.691 495.126,414.38 C 494.632,414.337 493.54,413.045 492.55,413.661 L 493.436,414.23 C 492.881,415.385 491.254,414.527 490.246,415.156 L 490.289,414.674 L 491.543,414.066 C 489.824,414.401 485.813,413.565 484.184,415.829 L 485.521,416.898 L 485.604,415.954 L 485.604,415.954 Z" marker-start="none" marker-end="none"/>
   <path d="M 487.736,416.377 L 487.214,416.795 L 487.694,416.838 L 487.736,416.377 Z" marker-start="none" marker-end="none"/>
   <path d="M 469.235,413.57 C 469.681,413.821 470.436,413.42 470.605,414.157 L 475.47,413.635 C 474.993,413.336 474.35,412.815 473.639,412.5 L 473.535,413.691 C 471.422,413.023 471.561,414.239 470.228,412.919 C 468.736,413.738 465.447,412.76 465.514,414.686 C 466.98,414.561 469.132,414.747 469.235,413.57 L 469.235,413.57 Z" marker-start="none" marker-end="none"/>
   <path d="M 494.983,416.032 L 493.759,416.183 L 494.96,416.286 L 494.983,416.032 Z" marker-start="none" marker-end="none"/>
   <path d="M 508.91,413.414 L 508.93,413.204 C 508.058,412.153 506.719,413.713 505.357,412.89 C 504.315,413.988 502.204,413.319 500.462,413.897 L 501.848,414.234 L 501.784,414.963 C 504.275,414.446 506.511,413.441 508.91,413.414 L 508.91,413.414 Z" marker-start="none" marker-end="none"/>
   <path d="M 506.191,414.398 L 505.232,414.312 C 505.466,414.334 505.652,415.053 506.152,414.851 L 506.191,414.398 Z" marker-start="none" marker-end="none"/>
   <path d="M 476.832,411.829 L 476.876,411.334 L 476.334,412.001 C 476.571,412.022 476.589,411.808 476.832,411.829 L 476.832,411.829 Z" marker-start="none" marker-end="none"/>
   <path d="M 510.24,414.506 C 509.652,413.267 507.829,414.756 507.349,414.713 L 510.24,414.506 L 510.24,414.506 Z" marker-start="none" marker-end="none"/>
   <path d="M 482.548,412.329 C 482.591,411.834 482.144,411.562 481.879,411.773 C 481.62,412.002 482.337,412.311 482.548,412.329 L 482.548,412.329 Z" marker-start="none" marker-end="none"/>
   <path d="M 512.099,412.959 L 509.675,413.002 L 509.633,413.476 C 510.551,413.795 511.332,413.147 512.099,412.959 L 512.099,412.959 Z" marker-start="none" marker-end="none"/>
   <path d="M 492.3,410.773 L 491.569,410.933 L 492.28,410.996 L 492.3,410.773 Z" marker-start="none" marker-end="none"/>
   <path d="M 509.757,412.058 L 508.793,411.976 C 508.995,412.458 509.225,412.476 509.717,412.519 L 509.757,412.058 Z" marker-start="none" marker-end="none"/>
   <path d="M 514.017,412.897 C 513.771,412.653 512.62,412.311 513.042,412.812 L 514.017,412.897 L 514.017,412.897 Z" marker-start="none" marker-end="none"/>
   <path d="M 520.948,413.282 L 521.169,413.523 L 522.677,412.931 L 520.948,413.282 Z" marker-start="none" marker-end="none"/>
   <path d="M 528.314,411.505 C 527.898,410.751 526.814,412.092 526.457,410.864 L 527.219,410.437 C 526.518,410.165 524.819,413.118 524.319,410.677 L 523.568,410.855 L 523.802,410.877 C 521.495,412.363 517.414,412.471 514.354,411.738 C 515.847,413.808 518.612,412.575 520.784,412.299 C 523.422,412.532 525.872,412.01 528.314,411.505 L 528.314,411.505 Z" marker-start="none" marker-end="none"/>
   <path d="M 517.754,411.299 L 517.03,411.488 L 517.732,411.549 L 517.754,411.299 Z" marker-start="none" marker-end="none"/>
   <path d="M 528.718,412.51 C 528.489,412.239 528.739,412.263 528.739,412.263 L 528.23,412.467 L 528.718,412.51 L 528.718,412.51 Z" marker-start="none" marker-end="none"/>
   <path d="M 530.895,412.45 C 530.661,412.195 530.448,411.944 530.724,411.483 C 531.042,410.773 531.4,412.027 531.464,411.302 C 530.788,410.751 529.046,411.569 528.398,410.54 C 528.314,411.505 530.183,412.153 530.895,412.45 L 530.895,412.45 Z" marker-start="none" marker-end="none"/>
   <path d="M 533.065,412.405 C 532.842,411.901 531.9,411.816 531.644,412.048 C 531.816,412.781 532.549,412.596 533.065,412.405 L 533.065,412.405 Z" marker-start="none" marker-end="none"/>
   <path d="M 533.633,411.252 C 533.466,410.51 532.674,411.169 531.984,410.855 L 532.165,411.363 C 532.674,411.169 533.127,411.694 533.633,411.252 L 533.633,411.252 Z" marker-start="none" marker-end="none"/>
   <path d="M 536.023,411.462 C 535.348,410.937 535.077,411.379 534.391,411.066 L 534.348,411.553 C 534.806,411.355 535.501,411.655 536.023,411.462 L 536.023,411.462 Z" marker-start="none" marker-end="none"/>
   <path d="M 522.94,406.95 L 503.206,407.144 L 504.155,407.229 L 501.405,408.433 L 501.649,408.691 C 508.686,407.625 516.159,407.536 522.94,406.95 L 522.94,406.95 Z" marker-start="none" marker-end="none"/>
   <path d="M 537.95,411.377 L 536.735,411.523 C 536.945,411.781 537.649,412.088 537.95,411.377 L 537.95,411.377 Z" marker-start="none" marker-end="none"/>
   <path d="M 511.949,408.89 L 512.412,409.394 L 513.62,409.247 L 511.949,408.89 Z" marker-start="none" marker-end="none"/>
   <path d="M 536.337,410.523 L 537.006,411.083 L 537.544,410.627 L 536.337,410.523 Z" marker-start="none" marker-end="none"/>
   <path d="M 542.805,411.088 C 542.022,408.868 539.665,411.053 538.256,410.691 C 539.624,411.523 541.729,409.324 542.805,411.088 L 542.805,411.088 Z" marker-start="none" marker-end="none"/>
   <path d="M 534.071,409.105 C 533.613,408.833 533.759,409.819 533.717,410.293 C 534.473,410.122 534.047,409.376 534.071,409.105 L 534.071,409.105 Z" marker-start="none" marker-end="none"/>
   <path d="M 535.243,409.48 L 535.203,409.945 L 536.4,409.811 L 535.243,409.48 Z" marker-start="none" marker-end="none"/>
   <path d="M 545.29,410.087 L 543.361,410.191 C 543.74,410.933 544.716,411.019 545.29,410.087 L 545.29,410.087 Z" marker-start="none" marker-end="none"/>
   <path d="M 537.65,409.418 L 538.338,409.752 L 539.531,409.855 L 537.65,409.418 Z" marker-start="none" marker-end="none"/>
   <path d="M 504.021,406.023 L 503.982,406.471 L 505.178,406.575 L 504.021,406.023 Z" marker-start="none" marker-end="none"/>
   <path d="M 509.056,406.213 L 509.014,406.681 L 510.237,406.569 L 509.056,406.213 Z" marker-start="none" marker-end="none"/>
   <path d="M 542.972,409.178 C 542.742,408.682 541.771,408.846 541.499,409.303 C 541.98,409.346 542.659,409.622 542.972,409.178 L 542.972,409.178 Z" marker-start="none" marker-end="none"/>
   <path d="M 544.667,408.85 L 543.886,409.26 L 544.625,409.325 L 544.667,408.85 Z" marker-start="none" marker-end="none"/>
   <path d="M 514.664,405.488 L 512.224,405.763 C 512.818,407.246 513.69,405.403 514.664,405.488 L 514.664,405.488 Z" marker-start="none" marker-end="none"/>
   <path d="M 525.836,406.954 C 525.579,406.931 524.758,405.648 524.399,406.828 C 524.837,407.364 525.362,406.911 525.836,406.954 L 525.836,406.954 Z" marker-start="none" marker-end="none"/>
   <path d="M 520.198,405.252 L 519.261,405.169 L 519.418,405.903 C 519.439,405.665 520.158,405.729 520.198,405.252 L 520.198,405.252 Z" marker-start="none" marker-end="none"/>
   <path d="M 503,404.226 C 502.303,403.686 501.594,403.622 500.861,403.812 C 501.532,404.338 502.261,404.164 503,404.226 L 503,404.226 Z" marker-start="none" marker-end="none"/>
   <path d="M 545.768,407.277 L 539.999,407.234 C 541.317,408.807 543.907,406.612 545.727,407.738 L 545.768,407.277 Z" marker-start="none" marker-end="none"/>
   <path d="M 523.365,405.061 L 522.388,404.975 L 522.599,405.25 L 521.598,405.855 C 522.306,405.915 523.302,405.776 523.365,405.061 L 523.365,405.061 Z" marker-start="none" marker-end="none"/>
   <path d="M 521.985,404.209 C 521.742,404.187 520.99,404.605 520.802,403.872 L 526.685,402.713 C 524.299,402.505 520.862,403.153 519.107,404.209 L 521.985,404.209 L 521.985,404.209 Z" marker-start="none" marker-end="none"/>
   <path d="M 529.345,402.448 L 527.454,402.282 L 527.411,402.778 C 527.905,402.588 528.821,402.901 529.345,402.448 L 529.345,402.448 Z" marker-start="none" marker-end="none"/>
   <path d="M 540.624,400.092 L 535.352,400.079 L 535.308,400.579 C 537.696,400.54 538.462,400.134 540.624,400.092 L 540.624,400.092 Z" marker-start="none" marker-end="none"/>
   <path d="M 560.595,399.888 C 560.154,396.73 564.203,394.446 560.863,391.513 C 558.087,390.065 557.381,387.118 554.599,385.898 C 554.745,384.23 553.35,383.625 551.959,383.273 L 546.08,384.187 C 543.463,381.303 540.574,378.655 537.897,376.03 L 538.21,375.565 L 536.787,375.209 C 537.856,374.109 535.506,373.177 535.132,372.181 C 533.436,372.286 534.821,370.226 533.147,370.079 C 533.397,369.877 533.645,369.898 534.123,369.941 C 533.421,369.601 532.824,368.385 532.247,369.285 C 531.111,368.448 531.995,366.613 529.778,367.368 L 529.818,366.911 C 529.303,367.325 528.387,366.786 528.674,366.083 C 528.492,365.586 529.191,365.647 529.212,365.403 C 529.428,365.903 530.384,365.987 530.845,366.027 L 528.282,362.449 L 527.957,363.384 C 527.195,363.785 526.34,362.506 526.637,362.049 C 527.144,361.864 527.579,362.131 528.063,362.174 L 526.528,360.362 C 526.23,361.066 525.565,360.517 525.338,360.256 L 525.888,359.599 L 523.511,359.122 C 525.063,358.058 523.047,356.441 522.104,356.109 C 521.651,355.851 521.422,355.338 521.232,355.104 L 521.757,354.661 L 521.486,354.638 L 521.529,354.135 C 520.34,354.032 518.932,353.678 518.116,352.153 L 519.341,352.049 L 517.947,351.437 L 518.714,351.023 C 518.219,350.98 518.03,350.48 518.073,349.997 C 517.612,349.958 516.168,349.592 515.491,349.053 C 515.511,348.824 515.789,348.609 515.81,348.359 L 515.375,347.842 C 515.078,348.545 514.37,348.233 513.887,348.191 L 514.945,347.084 C 514.219,344.367 511.561,347.509 510.543,345.251 C 511.102,344.333 512.651,345.914 512.565,344.221 C 511.626,343.911 511.54,342.213 510.263,342.838 C 509.452,343.95 507.602,340.656 506.186,342.946 C 505.467,342.884 504.134,341.565 505.341,341.437 C 504.802,342.359 503.723,340.802 503.025,340.497 L 503.589,339.596 L 501.56,337.967 C 503.04,337.605 503.401,339.096 504.301,339.66 L 504.198,340.842 C 504.803,339.467 505.612,341.23 506.073,341.502 C 508.04,341.178 510.071,342.57 512,342.484 L 511.29,342.191 L 511.814,341.773 C 510.962,340.475 508.697,341.963 507.815,340.674 C 508.103,340.476 508.321,340.243 508.341,340.014 C 507.876,339.971 506.896,340.372 506.584,341.052 L 505.053,339.489 L 506.001,339.324 L 504.866,338.734 C 505.18,338.049 506.303,338.862 507.022,338.924 L 507.04,338.708 L 508.741,338.596 C 506.665,337.463 505.592,335.915 503.246,335.23 L 503.337,336.937 C 502.124,337.065 502.079,334.91 500.84,335.259 C 499.957,334.488 498.188,332.629 496.668,333.446 C 497.121,333.738 498.105,333.571 497.789,334.299 C 497.017,334.924 496.384,333.906 495.462,333.592 L 495.504,333.131 C 494.149,334.674 493.44,331.963 492.535,331.418 C 493.522,331.019 494.358,332.294 495.589,332.152 L 493.376,330.036 C 493.796,330.549 492.792,331.178 492.079,331.118 C 491.116,331.032 490.43,330.519 489.92,331.187 L 487.392,329.51 C 488.449,328.407 489.022,330.131 490.257,329.763 L 489.608,329.221 L 489.879,328.532 L 489.431,328.256 L 489.146,328.713 C 488.225,328.151 487.098,327.566 486.173,326.769 L 487.245,325.89 C 485.022,326.433 483.095,323.855 481.254,322.73 L 480.99,322.941 C 480.263,320.239 477.34,320.933 476.357,318.433 C 474.866,318.799 474.348,316.601 472.436,316.433 C 469.634,312.575 464.295,313.065 461.772,308.997 C 462.017,309.019 462.059,308.539 461.814,308.517 C 459.151,308.769 457.309,305.006 454.227,304.506 C 454.794,306.48 457.458,306.221 458.269,307.729 C 460.317,309.109 463.272,311.286 465.495,313.17 C 465.98,313.212 466.409,313.734 466.848,314.256 C 466.52,315.199 465.391,314.359 464.972,313.841 L 465.35,314.829 C 473.261,320.829 480.165,329.622 487.821,335.582 L 488.915,337.122 C 485.163,335.829 482.876,331.523 479.168,330.247 C 481.368,332.592 484.131,334.04 484.816,336.98 L 485.296,336.803 L 505.625,360.211 L 505.951,359.523 L 507.193,361.566 L 507.717,361.127 C 507.334,362.772 509.061,362.199 509.66,363.691 C 513.474,369.569 518.779,374.838 522.367,380.45 L 522.847,380.492 C 522.867,380.238 522.633,380.217 522.412,379.962 C 524.795,380.17 525.615,384.573 528.294,384.323 C 530.702,386.937 533.131,389.553 535.872,391.246 L 534.86,391.877 C 534.991,393.084 536.269,392.247 536.706,392.764 L 536.351,393.691 C 543.276,394.532 547.776,400.72 555.291,400.161 C 556.799,402.213 558.92,399.989 560.595,399.888 L 560.595,399.888 Z" marker-start="none" marker-end="none"/>
   <path d="M 504.736,337.543 C 504.488,337.519 503.84,336.726 503.776,337.459 L 504.736,337.543 L 504.736,337.543 Z" marker-start="none" marker-end="none"/>
   <path d="M 498.832,330.76 L 499.087,330.536 L 496.345,328.859 L 495.816,329.545 C 494.691,328.484 493.246,328.588 492.139,327.506 C 492.433,327.079 492.891,327.355 493.124,327.377 C 491.009,326.475 489.961,325.181 487.85,324.272 L 489.542,324.195 L 486.467,323.42 C 486.551,322.458 484.339,323.234 485.418,321.894 C 486.613,321.746 487.977,322.834 489.16,322.937 C 485.441,321.643 481.762,319.655 478.368,317.186 L 479.147,316.523 C 478.262,315.742 477.714,316.657 476.563,316.078 C 477.126,314.905 475.158,315.47 474.764,314.466 C 473.866,313.902 472.988,312.622 471.503,313.211 C 475.262,314.273 477.069,318.496 481.043,319.592 L 487.532,325.221 L 487.349,324.7 C 489.222,325.114 490.704,327.381 492.033,328.721 L 492.329,328.278 L 496.311,332.216 C 498.04,331.414 498.879,332.924 500.28,333.311 C 500.155,334.739 501.71,333.436 502.124,334.407 C 503.25,332.587 499.863,332.526 498.832,330.76 L 498.832,330.76 Z" marker-start="none" marker-end="none"/>
   <path d="M 496.22,330.285 L 498.728,331.959 L 499.191,332 L 496.22,330.285 Z" marker-start="none" marker-end="none"/>
   <path d="M 491.888,330.384 C 492.496,329.006 490.969,329.825 490.577,328.838 L 490.298,329.282 C 491.28,329.148 490.947,330.07 491.888,330.384 L 491.888,330.384 Z" marker-start="none" marker-end="none"/>
   <path d="M 497.66,330.411 L 497.639,330.655 L 498.104,330.696 L 498.126,330.45 L 497.66,330.411 Z" marker-start="none" marker-end="none"/>
   <path d="M 490.884,327.898 L 490.171,328.321 L 490.842,328.38 L 490.884,327.898 Z" marker-start="none" marker-end="none"/>
   <path d="M 494.108,326.992 C 494.151,326.493 493.056,325.45 492.12,325.117 C 492.016,326.307 493.165,326.91 494.108,326.992 L 494.108,326.992 Z" marker-start="none" marker-end="none"/>
   <path d="M 484.496,324.234 L 483.996,324.406 L 484.478,324.449 L 484.496,324.234 Z" marker-start="none" marker-end="none"/>
   <path d="M 491.873,325.095 C 491.447,324.359 490.779,323.798 490.087,323.737 C 490.024,324.463 491.154,324.816 491.873,325.095 L 491.873,325.095 Z" marker-start="none" marker-end="none"/>
   <path d="M 486.521,320.303 L 486.277,320.282 C 485.78,320.724 486.954,320.825 487.116,321.549 C 487.407,321.112 486.975,320.579 486.521,320.303 L 486.521,320.303 Z" marker-start="none" marker-end="none"/>
   <path d="M 485.865,319.76 C 482.641,318.048 480.486,315.199 476.772,313.67 C 480.228,315.174 482.09,318.717 485.865,319.76 L 485.865,319.76 Z" marker-start="none" marker-end="none"/>
   <path d="M 475.876,312.876 L 475.613,313.099 L 475.855,313.118 L 475.876,312.876 Z" marker-start="none" marker-end="none"/>
   <path d="M 470.454,311.45 L 470.977,311.019 C 470.329,310.217 468.587,310.811 468.215,309.562 C 467.797,311.683 470.224,311.432 471.543,312.743 L 470.454,311.45 Z" marker-start="none" marker-end="none"/>
   <path d="M 470.857,309.545 L 474.474,312.268 C 474.621,310.592 472.001,310.131 470.857,309.545 L 470.857,309.545 Z" marker-start="none" marker-end="none"/>
   <path d="M 464.072,310.156 L 464.482,310.928 L 464.967,310.971 L 464.072,310.156 Z" marker-start="none" marker-end="none"/>
   <path d="M 465.053,307.118 C 462.956,306.704 461.768,303.471 459.794,304.247 L 459.73,304.987 L 460.206,305.028 L 459.989,304.743 C 460.487,304.569 461.645,304.889 461.352,305.592 C 462.104,305.195 463.168,306.721 463.647,306.997 L 463.147,306.953 C 463.321,307.686 464.551,307.561 464.991,307.832 L 467.466,309.967 C 468.11,308.105 464.866,309.269 465.053,307.118 L 465.053,307.118 Z" marker-start="none" marker-end="none"/>
   <path d="M 470.454,308.795 L 470.454,308.795 L 469.928,309.226 C 470.183,309.247 470.433,309.045 470.454,308.795 L 470.454,308.795 Z" marker-start="none" marker-end="none"/>
   <path d="M 469.767,308.25 C 470.052,307.816 469.319,307.976 468.839,307.936 L 469.485,308.709 L 469.767,308.25 L 469.767,308.25 Z" marker-start="none" marker-end="none"/>
   <path d="M 468.402,307.411 C 468.423,307.183 468.214,306.919 468.214,306.919 L 468.173,307.393 L 468.402,307.411 L 468.402,307.411 Z" marker-start="none" marker-end="none"/>
   <path d="M 467.495,306.855 L 467.293,306.359 L 467.014,306.812 C 467.014,306.812 467.474,307.1 467.495,306.855 L 467.495,306.855 Z" marker-start="none" marker-end="none"/>
   <path d="M 453.374,303.209 L 453.528,304.178 L 454.25,304.242 L 453.374,303.209 Z" marker-start="none" marker-end="none"/>
   <path d="M 459.856,303.544 L 459.898,303.069 C 458.396,303.648 456.912,301.346 455.737,301.032 L 456.807,302.539 C 456.785,302.795 456.326,302.497 456.549,302.776 L 457.978,302.901 L 457.224,303.312 L 457.455,303.334 C 457.834,301.932 459.043,304.441 459.856,303.544 L 459.856,303.544 Z" marker-start="none" marker-end="none"/>
   <path d="M 455.655,301.959 L 455.833,302.454 L 456.097,302.476 L 455.655,301.959 Z" marker-start="none" marker-end="none"/>
   <path d="M 453.21,299.574 L 455.296,300.739 L 453.251,299.105 L 453.21,299.574 Z" marker-start="none" marker-end="none"/>
   <path d="M 452.595,298.338 C 452.13,298.298 451.676,298.026 451.196,297.984 L 452.282,299.281 C 452.533,299.043 452.575,298.562 452.595,298.338 L 452.595,298.338 Z" marker-start="none" marker-end="none"/>
   <path d="M 450.693,298.17 L 450.212,298.13 L 450.418,298.626 C 450.867,298.898 450.674,298.394 450.693,298.17 L 450.693,298.17 Z" marker-start="none" marker-end="none"/>
   <path d="M 449.1,297.075 L 448.608,297.032 L 448.81,297.773 C 449.037,297.795 449.08,297.307 449.1,297.075 L 449.1,297.075 Z" marker-start="none" marker-end="none"/>
   <path d="M 323.741,377.497 L 323.959,377.751 L 324.702,377.584 L 323.741,377.497 Z" marker-start="none" marker-end="none"/>
   <path d="M 307.277,373.161 C 306.835,372.653 304.865,373.44 303.84,374.071 L 303.524,374.773 C 304.739,374.881 306.223,374.28 307.277,373.161 L 307.277,373.161 Z" marker-start="none" marker-end="none"/>
   <path d="M 327.222,376.117 L 327.451,376.372 L 330.191,375.168 L 329.959,374.918 L 327.222,376.117 Z" marker-start="none" marker-end="none"/>
   <path d="M 469.967,383.071 C 470.009,382.596 469.035,382.756 468.79,382.737 C 468.271,383.177 469.454,383.515 469.967,383.071 L 469.967,383.071 Z" marker-start="none" marker-end="none"/>
   <path d="M 460.98,381.325 C 461.001,381.092 460.757,381.071 460.541,380.799 L 460.289,381.03 L 460.457,381.76 L 462.163,381.428 L 460.98,381.325 L 460.98,381.325 Z" marker-start="none" marker-end="none"/>
   <path d="M 458.828,381.138 L 458.601,380.881 L 458.098,381.316 C 458.538,381.592 458.559,381.355 458.828,381.138 L 458.828,381.138 Z" marker-start="none" marker-end="none"/>
   <path d="M 463.355,381.532 L 462.386,381.691 L 463.095,381.754 L 463.355,381.532 Z" marker-start="none" marker-end="none"/>
   <path d="M 456.199,380.907 L 456.178,381.148 L 457.387,381.01 L 457.408,380.778 L 456.199,380.907 Z" marker-start="none" marker-end="none"/>
   <path d="M 453.847,380.466 C 453.911,379.734 452.723,379.631 451.984,379.566 C 452.403,380.338 453.111,380.638 453.847,380.466 L 453.847,380.466 Z" marker-start="none" marker-end="none"/>
   <path d="M 451.485,379.772 C 451.316,379.04 450.542,379.687 450.269,379.901 C 450.753,379.941 451.234,379.984 451.485,379.772 L 451.485,379.772 Z" marker-start="none" marker-end="none"/>
   <path d="M 439.15,377.975 L 438.421,377.911 C 438.153,378.355 438.628,378.397 439.109,378.44 L 439.15,377.975 Z" marker-start="none" marker-end="none"/>
   <path d="M 446.99,378.91 L 447.012,378.661 L 446.022,379.044 C 446.507,379.087 446.774,378.642 446.99,378.91 L 446.99,378.91 Z" marker-start="none" marker-end="none"/>
   <path d="M 437.945,377.868 L 435.389,376.924 C 435.83,377.428 436.952,378.5 437.945,377.868 L 437.945,377.868 Z" marker-start="none" marker-end="none"/>
   <path d="M 443.677,378.371 C 443.677,378.371 443.699,378.117 443.465,378.096 L 443.217,378.075 L 443.174,378.575 C 443.421,378.596 443.655,378.618 443.677,378.371 L 443.677,378.371 Z" marker-start="none" marker-end="none"/>
   <path d="M 445.834,378.558 L 444.617,378.703 L 445.556,378.785 L 445.834,378.558 Z" marker-start="none" marker-end="none"/>
   <path d="M 433.485,376.513 L 432.772,376.45 C 432.75,376.695 432.964,377.178 433.443,376.993 L 433.485,376.513 Z" marker-start="none" marker-end="none"/>
   <path d="M 433.109,375.523 C 432.729,376.932 431.178,375.592 429.945,375.971 C 430.152,376.221 433.195,377.198 433.109,375.523 L 433.109,375.523 Z" marker-start="none" marker-end="none"/>
   <path d="M 439.928,377.323 C 438.857,375.773 436.146,376.513 434.508,375.885 C 435.349,377.385 438.32,376.45 439.928,377.323 L 439.928,377.323 Z" marker-start="none" marker-end="none"/>
   <path d="M 421.912,374.29 L 427.313,375.739 L 429.233,375.907 L 421.912,374.29 Z" marker-start="none" marker-end="none"/>
   <path d="M 420.756,373.717 L 420.693,374.437 L 421.425,374.502 L 420.756,373.717 Z" marker-start="none" marker-end="none"/>
   <path d="M 429.799,374.98 C 429.58,374.73 428.186,373.872 427.418,374.54 C 424.482,372.351 420.299,373.436 417.082,371.703 C 420.756,373.717 425.3,374.117 429.799,374.98 L 429.799,374.98 Z" marker-start="none" marker-end="none"/>
   <path d="M 415.296,372.746 L 417.644,373.446 L 419.078,373.571 L 415.296,372.746 Z" marker-start="none" marker-end="none"/>
   <path d="M 406.488,371.746 C 406.53,371.265 405.12,371.142 405.312,371.643 L 406.488,371.746 L 406.488,371.746 Z" marker-start="none" marker-end="none"/>
   <path d="M 416.088,372.101 C 415.654,371.579 414.704,371.493 414.247,371.226 L 414.185,371.933 C 414.662,371.976 415.612,372.058 416.088,372.101 L 416.088,372.101 Z" marker-start="none" marker-end="none"/>
   <path d="M 413.283,371.142 L 409.322,369.821 C 410.004,370.127 411.565,371.704 413.283,371.142 L 413.283,371.142 Z" marker-start="none" marker-end="none"/>
   <path d="M 431.032,371.721 C 431.071,371.278 430.844,371.256 430.611,370.967 L 430.322,371.66 L 431.032,371.721 L 431.032,371.721 Z" marker-start="none" marker-end="none"/>
   <path d="M 424.143,370.67 C 423.678,370.631 423.231,370.086 422.512,370.259 C 422.68,370.989 423.661,370.824 424.143,370.67 L 424.143,370.67 Z" marker-start="none" marker-end="none"/>
   <path d="M 427.037,370.655 C 427.058,370.42 425.871,370.082 425.171,370.019 C 425.613,370.53 426.3,370.859 427.037,370.655 L 427.037,370.655 Z" marker-start="none" marker-end="none"/>
   <path d="M 428.457,370.778 C 428.477,370.545 428.013,370.505 427.54,370.463 C 427.48,371.157 428.228,370.759 428.457,370.778 L 428.457,370.778 Z" marker-start="none" marker-end="none"/>
   <path d="M 431.135,370.54 C 430.194,370.459 429.262,369.893 428.291,370.04 C 428.978,370.588 430.194,370.459 431.135,370.54 L 431.135,370.54 Z" marker-start="none" marker-end="none"/>
   <path d="M 414.497,368.368 C 414.057,367.834 412.864,367.73 412.172,367.42 C 412.325,368.411 413.809,368.043 414.497,368.368 L 414.497,368.368 Z" marker-start="none" marker-end="none"/>
   <path d="M 385.006,364.588 C 380.69,361.782 374.902,361.769 370.018,359.894 C 374.117,362.664 380.141,362.461 385.006,364.588 L 385.006,364.588 Z" marker-start="none" marker-end="none"/>
   <path d="M 394.383,364.437 L 393.168,364.799 L 394.152,364.415 L 394.383,364.437 Z" marker-start="none" marker-end="none"/>
   <path d="M 367.193,359.178 C 366.773,358.415 366.041,358.587 365.567,358.545 L 366.648,359.849 L 367.193,359.178 L 367.193,359.178 Z" marker-start="none" marker-end="none"/>
   <path d="M 358.275,356.708 C 359.596,358.023 362.682,358.293 364.595,358.696 L 358.275,356.708 L 358.275,356.708 Z" marker-start="none" marker-end="none"/>
   <path d="M 356.364,356.54 C 356.427,355.829 355.45,355.967 354.97,355.927 C 355.159,356.436 355.883,356.497 356.364,356.54 L 356.364,356.54 Z" marker-start="none" marker-end="none"/>
   <path d="M 331.591,350.992 L 331.781,351.493 L 332.782,351.355 L 331.591,350.992 Z" marker-start="none" marker-end="none"/>
   <path d="M 333.329,350.181 L 333.286,350.669 L 334.271,350.755 L 333.329,350.181 Z" marker-start="none" marker-end="none"/>
   <path d="M 327.382,349.661 L 327.339,350.148 L 328.303,350.006 L 327.382,349.661 Z" marker-start="none" marker-end="none"/>
   <path d="M 332.888,350.143 L 332.151,349.867 L 331.884,350.321 C 332.362,350.363 332.573,350.605 332.888,350.143 L 332.888,350.143 Z" marker-start="none" marker-end="none"/>
   <path d="M 331.444,349.803 L 329.583,349.135 C 330.059,349.178 330.453,350.196 331.444,349.803 L 331.444,349.803 Z" marker-start="none" marker-end="none"/>
   <path d="M 327.737,348.256 L 328.45,348.32 C 328.024,347.799 327.355,347.254 326.373,347.418 L 327.737,348.256 C 327.485,348.48 327.271,348.217 327.271,348.217 C 327.444,348.949 328.665,348.584 329.096,349.35 L 327.737,348.256 Z" marker-start="none" marker-end="none"/>
   <path d="M 324.848,348.489 C 325.102,348.273 325.124,348.028 325.165,347.549 L 326.125,347.394 C 324.847,345.614 323.651,348.144 322.863,346.144 C 322.801,346.855 322.485,347.798 323.423,348.126 L 319.868,347.334 C 321.001,348.385 322.655,348.53 323.929,347.924 C 323.867,348.635 324.618,348.23 324.848,348.489 L 324.848,348.489 Z" marker-start="none" marker-end="none"/>
   <path d="M 334.606,349.575 C 334.911,348.885 334.161,349.066 333.955,348.802 L 333.893,349.513 L 334.606,349.575 L 334.606,349.575 Z" marker-start="none" marker-end="none"/>
   <path d="M 197.89,336.898 L 195.992,336.73 L 195.95,337.213 C 196.643,337.506 197.152,337.079 197.89,336.898 L 197.89,336.898 Z" marker-start="none" marker-end="none"/>
   <path d="M 329.032,347.17 C 329.687,347.946 331.778,348.855 333.453,348.756 L 329.032,347.17 L 329.032,347.17 Z" marker-start="none" marker-end="none"/>
   <path d="M 317.521,346.881 L 318.214,347.187 L 318.938,347.252 L 317.521,346.881 Z" marker-start="none" marker-end="none"/>
   <path d="M 320.704,346.208 L 320.811,344.989 L 325.27,346.354 C 323.423,345.489 321.083,344.549 319.007,343.655 L 320.559,344.967 C 320.31,345.217 320.079,344.927 319.828,345.174 C 319.828,345.174 320.495,345.7 320.474,345.933 L 315.807,344.338 C 317.437,344.966 319.113,347.988 320.704,346.208 L 320.704,346.208 Z" marker-start="none" marker-end="none"/>
   <path d="M 317.583,346.17 C 317.396,345.428 315.458,345.496 314.566,344.95 C 315.115,346.918 316.952,345.157 317.583,346.17 L 317.583,346.17 Z" marker-start="none" marker-end="none"/>
   <path d="M 313.986,345.855 L 314.276,345.644 L 313.837,345.118 L 313.817,345.351 L 313.986,345.855 Z" marker-start="none" marker-end="none"/>
   <path d="M 323.591,343.571 C 326.354,344.782 329.832,346.286 333.2,346.579 L 323.591,343.571 L 323.591,343.571 Z" marker-start="none" marker-end="none"/>
   <path d="M 326.728,343.355 L 336.533,346.635 L 337.027,346.678 L 326.728,343.355 Z" marker-start="none" marker-end="none"/>
   <path d="M 311.471,344.444 L 311.727,344.196 L 311.051,343.92 L 310.807,343.901 L 311.471,344.444 Z" marker-start="none" marker-end="none"/>
   <path d="M 307.497,343.362 L 307.941,343.648 L 307.497,343.362 Z" marker-start="none" marker-end="none"/>
   <path d="M 303.327,341.566 L 303.077,341.544 L 304.168,342.584 C 304.469,341.898 303.794,341.605 303.327,341.566 L 303.327,341.566 Z" marker-start="none" marker-end="none"/>
   <path d="M 214.294,333.519 L 212.071,334.299 C 213.036,334.384 214,334.23 214.294,333.519 L 214.294,333.519 Z" marker-start="none" marker-end="none"/>
   <path d="M 337.013,344.019 L 339.332,344.948 L 338.413,344.379 L 337.013,344.019 Z" marker-start="none" marker-end="none"/>
   <path d="M 215.488,333.625 L 214.735,334.045 L 215.445,334.109 L 215.488,333.625 Z" marker-start="none" marker-end="none"/>
   <path d="M 317.957,341.894 L 318.187,341.915 L 317.518,341.368 L 317.286,341.349 L 317.957,341.894 Z" marker-start="none" marker-end="none"/>
   <path d="M 341.344,343.941 C 340.671,343.394 340.231,342.859 339.265,343.002 C 339.722,343.312 340.629,343.88 341.344,343.941 L 341.344,343.941 Z" marker-start="none" marker-end="none"/>
   <path d="M 322.548,341.54 L 322.763,341.828 L 323.005,341.85 L 322.548,341.54 Z" marker-start="none" marker-end="none"/>
   <path d="M 338.765,343.226 C 336.043,341.289 331.503,340.892 328.044,339.381 L 328.085,338.915 C 325.265,338.177 321.041,336.851 319.406,336.453 C 325.453,338.686 332.155,341.678 338.765,343.226 L 338.765,343.226 Z" marker-start="none" marker-end="none"/>
   <path d="M 306.212,338.678 L 305.507,338.618 C 305.466,339.086 305.948,338.889 306.212,338.678 L 306.212,338.678 Z" marker-start="none" marker-end="none"/>
   <path d="M 315.277,336.825 L 321.502,339.764 L 322.265,339.377 L 315.277,336.825 Z" marker-start="none" marker-end="none"/>
   <path d="M 329.785,338.573 C 328.612,338.252 329.202,337.079 327.51,337.161 C 327.882,338.406 328.881,338.015 329.785,338.573 L 329.785,338.573 Z" marker-start="none" marker-end="none"/>
   <path d="M 321.706,334.756 L 321.877,335.483 L 320.892,335.635 C 322.777,336.28 324.696,336.2 326.565,337.079 L 321.706,334.756 Z" marker-start="none" marker-end="none"/>
   <path d="M 239.493,328.747 L 238.502,329.144 L 239.218,329.208 L 239.493,328.747 Z" marker-start="none" marker-end="none"/>
   <path d="M 284.425,331.98 L 284.665,332.002 L 284.645,332.226 L 284.406,332.204 L 284.425,331.98 Z" marker-start="none" marker-end="none"/>
   <path d="M 321.436,334.946 C 321.228,334.716 320.51,334.653 320.066,334.355 C 320.263,334.842 320.705,335.155 321.436,334.946 L 321.436,334.946 Z" marker-start="none" marker-end="none"/>
   <path d="M 309.444,331.993 L 309.424,332.229 L 310.868,332.118 L 309.444,331.993 Z" marker-start="none" marker-end="none"/>
   <path d="M 305.274,329.937 C 305.676,330.927 307.176,330.358 307.557,331.579 L 308.081,331.138 L 305.274,329.937 L 305.274,329.937 Z" marker-start="none" marker-end="none"/>
   <path d="M 236.244,316.208 C 241.576,318.592 244.764,320.793 250.14,322.467 C 246.267,320.207 241.166,317.829 236.244,316.208 L 236.244,316.208 Z" marker-start="none" marker-end="none"/>
   <path d="M 212.739,307.406 C 212.295,306.898 211.351,306.816 210.894,306.517 C 211.071,307.023 212.049,307.109 212.739,307.406 L 212.739,307.406 Z" marker-start="none" marker-end="none"/>
   <path d="M 210.183,306.454 C 209.703,306.187 209.317,305.428 208.804,305.618 C 208.782,305.879 209.661,306.669 210.183,306.454 L 210.183,306.454 Z" marker-start="none" marker-end="none"/>
   <path d="M 252.209,307.017 C 251.199,307.653 251.282,306.704 250.56,306.872 C 249.675,305.842 248.083,304.966 245.912,304.776 C 245.429,304.733 244.716,304.927 244.881,305.657 C 247.476,306.371 249.509,307.747 252.293,308.944 C 253.267,308.795 252.166,307.497 252.209,307.017 L 252.209,307.017 Z" marker-start="none" marker-end="none"/>
   <path d="M 223.979,305.514 L 224,305.273 L 223.536,304.993 L 223.264,305.209 L 223.979,305.514 Z" marker-start="none" marker-end="none"/>
   <path d="M 195.615,299.682 L 195.367,299.66 L 196.015,300.665 C 196.038,300.411 196.334,299.743 195.615,299.682 L 195.615,299.682 Z" marker-start="none" marker-end="none"/>
   <path d="M 193.535,298.778 L 193.983,299.286 L 194.204,299.306 L 193.535,298.778 Z" marker-start="none" marker-end="none"/>
   <path d="M 193.035,298.95 C 193.317,298.504 192.588,298.44 192.376,298.196 C 192.334,298.674 192.547,298.907 193.035,298.95 L 193.035,298.95 Z" marker-start="none" marker-end="none"/>
   <path d="M 190.76,297.549 C 190.78,297.319 189.819,297.234 190.012,297.733 C 190.262,297.755 190.716,298.049 190.76,297.549 L 190.76,297.549 Z" marker-start="none" marker-end="none"/>
   <path d="M 188.672,296.648 C 188.713,296.174 188.212,296.355 187.738,296.315 C 187.696,296.793 188.441,296.629 188.672,296.648 L 188.672,296.648 Z" marker-start="none" marker-end="none"/>
   <path d="M 186.592,295.75 L 186.592,295.75 L 183.824,294.306 L 186.592,295.75 Z" marker-start="none" marker-end="none"/>
   <path d="M 234.356,299.437 C 234.13,299.415 233.918,298.933 233.666,299.157 L 233.626,299.613 C 233.856,299.631 234.087,299.905 234.356,299.437 L 234.356,299.437 Z" marker-start="none" marker-end="none"/>
   <path d="M 232.071,298.04 L 231.782,298.747 L 232.493,298.808 L 232.071,298.04 Z" marker-start="none" marker-end="none"/>
   <path d="M 181.961,293.657 C 182.462,293.217 181.493,293.385 181.03,293.091 C 180.761,293.553 181.73,293.638 181.961,293.657 L 181.961,293.657 Z" marker-start="none" marker-end="none"/>
   <path d="M 179.885,292.496 C 179.904,292.278 179.667,292.256 179.419,292.237 L 179.842,292.987 C 180.076,293.006 180.119,292.515 179.885,292.496 L 179.885,292.496 Z" marker-start="none" marker-end="none"/>
   <path d="M 178.711,292.174 C 178.753,291.69 177.348,291.338 177.497,292.286 L 178.711,292.174 L 178.711,292.174 Z" marker-start="none" marker-end="none"/>
   <path d="M 176.634,291.276 L 175.632,291.67 L 176.354,291.733 L 176.634,291.276 Z" marker-start="none" marker-end="none"/>
   <path d="M 177.119,291.316 L 176.838,291.522 L 177.559,291.584 L 177.119,291.316 Z" marker-start="none" marker-end="none"/>
   <path d="M 172.468,289.471 C 172.51,288.992 171.794,288.673 171.066,288.864 C 171.28,289.101 172.008,289.165 172.468,289.471 L 172.468,289.471 Z" marker-start="none" marker-end="none"/>
   <path d="M 168.551,287.44 C 169.054,287.234 168.327,287.17 168.348,286.927 L 168.066,287.397 L 168.551,287.44 L 168.551,287.44 Z" marker-start="none" marker-end="none"/>
   <path d="M 165.071,285.928 L 165.03,286.398 L 166.254,286.247 L 165.071,285.928 Z" marker-start="none" marker-end="none"/>
   <path d="M 160.912,284.125 C 161.168,283.655 160.686,283.872 160.483,283.363 C 159.996,283.553 160.645,284.346 160.912,284.125 L 160.912,284.125 Z" marker-start="none" marker-end="none"/>
   <path d="M 158.414,282.212 L 157.932,282.17 L 158.149,282.674 C 158.392,282.454 158.414,282.212 158.414,282.212 L 158.414,282.212 Z" marker-start="none" marker-end="none"/>
   <path d="M 156.581,281.334 L 156.519,282.045 L 156.997,282.088 L 156.581,281.334 Z" marker-start="none" marker-end="none"/>
   <path d="M 153.105,279.828 L 152.085,280.454 L 152.578,280.267 L 153.105,279.828 Z" marker-start="none" marker-end="none"/>
   <path d="M 150.343,278.384 L 149.63,278.321 L 149.801,279.061 C 150.05,279.083 150.091,278.608 150.343,278.384 L 150.343,278.384 Z" marker-start="none" marker-end="none"/>
   <path d="M 365.703,293.599 L 365.535,295.523 C 365.799,295.315 365.883,294.351 365.703,293.599 L 365.703,293.599 Z" marker-start="none" marker-end="none"/>
   <path d="M 136.287,271.376 L 135.812,271.334 C 135.79,271.592 136.026,271.824 136.265,271.631 L 136.287,271.376 Z" marker-start="none" marker-end="none"/>
   <path d="M 323.659,276.716 L 323.701,276.239 L 322.904,277.135 C 323.348,277.406 323.639,276.946 323.659,276.716 L 323.659,276.716 Z" marker-start="none" marker-end="none"/>
   <path d="M 331.7,272.863 L 331.743,272.375 C 331.49,272.571 330.548,272.269 330.964,273.031 C 331.195,273.049 331.446,273.073 331.7,272.863 L 331.7,272.863 Z" marker-start="none" marker-end="none"/>
   <path d="M 246.903,263.269 L 244.879,264.515 C 245.646,264.131 246.573,264.213 246.903,263.269 L 246.903,263.269 Z" marker-start="none" marker-end="none"/>
   <path d="M 332.531,271.467 L 331.996,272.138 L 332.245,272.16 L 332.531,271.467 Z" marker-start="none" marker-end="none"/>
   <path d="M 333.058,268.151 L 332.244,269.303 C 332.952,269.364 332.78,268.612 333.058,268.151 L 333.058,268.151 Z" marker-start="none" marker-end="none"/>
   <path d="M 254.798,258.433 L 255.03,258.454 L 260.614,254.838 L 260.635,254.579 L 254.798,258.433 Z" marker-start="none" marker-end="none"/>
   <path d="M 193.388,250.876 L 193.431,250.394 C 193.162,250.634 192.22,250.552 192.883,251.078 C 192.904,250.833 193.143,250.854 193.388,250.876 L 193.388,250.876 Z" marker-start="none" marker-end="none"/>
   <path d="M 175.037,249.048 L 173.821,249.164 L 174.786,249.026 L 175.037,249.048 Z" marker-start="none" marker-end="none"/>
   <path d="M 182.911,249.738 C 182.489,248.985 181.256,249.329 180.773,249.549 C 180.754,249.769 182.148,250.139 182.911,249.738 L 182.911,249.738 Z" marker-start="none" marker-end="none"/>
   <path d="M 176.261,248.891 L 175.757,249.11 L 176.238,249.152 L 176.261,248.891 Z" marker-start="none" marker-end="none"/>
   <path d="M 179.578,249.445 L 178.174,249.059 L 178.152,249.32 C 178.593,249.58 179.122,249.143 179.578,249.445 L 179.578,249.445 Z" marker-start="none" marker-end="none"/>
   <path d="M 170.264,248.631 C 169.574,248.307 168.434,247.489 167.698,247.691 C 167.87,248.42 169.613,247.859 170.264,248.631 L 170.264,248.631 Z" marker-start="none" marker-end="none"/>
   <path d="M 371.592,265.043 L 371.336,265.019 L 370.804,265.463 C 371.029,265.713 371.316,265.239 371.592,265.043 L 371.592,265.043 Z" marker-start="none" marker-end="none"/>
   <path d="M 377.781,265.584 L 376.808,265.721 L 377.534,265.785 L 377.781,265.584 Z" marker-start="none" marker-end="none"/>
   <path d="M 263.432,253.161 L 261.118,254.622 L 263.39,253.645 L 263.432,253.161 Z" marker-start="none" marker-end="none"/>
   <path d="M 407.93,264.601 L 407.281,263.838 L 407.527,263.622 L 407.991,263.898 C 410.769,262.463 415.669,261.438 417.196,257.709 C 417.827,256.08 419.142,254.54 420.694,253.449 C 419.597,252.376 422.455,252.626 421.611,251.36 L 419.372,251.902 L 419.415,251.414 C 418.402,252.272 416.97,251.932 416.003,252.062 C 414.728,252.927 413.347,254.988 411.966,254.123 C 413.218,253.757 412.323,252.717 413.137,251.812 C 412.884,252.052 412.659,251.769 412.385,252.007 L 412.176,251.727 C 412.427,251.533 412.968,251.087 412.762,250.587 C 412.061,250.524 411.271,251.432 410.852,250.665 C 409.269,251.962 409.263,254.86 407.752,255.695 C 407.506,255.894 407.972,255.936 407.951,256.183 C 407.208,256.359 406.693,256.79 406.396,257.489 L 406.836,258.014 L 406.333,258.213 L 406.106,257.95 C 404.098,258.971 400.704,261.813 402.592,265.079 L 402.527,265.82 C 405.205,265.566 405.46,265.332 407.93,264.601 L 407.93,264.601 Z" marker-start="none" marker-end="none"/>
   <path d="M 179.437,201.312 L 177.954,201.92 C 178.454,201.726 179.353,202.269 179.437,201.312 L 179.437,201.312 Z" marker-start="none" marker-end="none"/>
   <path d="M 227.701,205.063 L 227.681,205.3 L 228.938,204.919 L 227.701,205.063 Z" marker-start="none" marker-end="none"/>
   <path d="M 231.806,204.937 L 231.847,204.476 L 231.136,204.415 L 231.076,205.105 C 231.32,205.128 231.592,204.674 231.806,204.937 L 231.806,204.937 Z" marker-start="none" marker-end="none"/>
   <path d="M 186.855,199.087 C 186.168,198.781 184.457,199.108 183.671,199.777 C 184.9,199.378 186.106,199.484 186.855,199.087 L 186.855,199.087 Z" marker-start="none" marker-end="none"/>
   <path d="M 236.89,204.434 C 236.686,204.148 237.418,203.975 236.954,203.7 L 236.244,203.639 C 235.721,204.065 236.662,204.414 236.89,204.434 L 236.89,204.434 Z" marker-start="none" marker-end="none"/>
   <path d="M 240.341,203.519 L 240.36,203.289 L 239.613,203.701 C 239.862,203.725 240.299,203.993 240.341,203.519 L 240.341,203.519 Z" marker-start="none" marker-end="none"/>
   <path d="M 242.251,203.687 C 242.566,202.997 241.044,203.58 240.826,203.562 L 242.251,203.687 L 242.251,203.687 Z" marker-start="none" marker-end="none"/>
   <path d="M 245.174,203.225 L 243.01,203.268 L 244.946,203.204 L 245.174,203.225 Z" marker-start="none" marker-end="none"/>
   <path d="M 203.151,194.488 C 202.925,194.227 202.704,193.976 202.463,193.954 L 202.223,193.934 C 202.182,194.402 202.884,194.688 203.151,194.488 L 203.151,194.488 Z" marker-start="none" marker-end="none"/>
   <path d="M 200.229,128.831 L 199.703,129.257 L 200.188,129.3 L 200.229,128.831 Z" marker-start="none" marker-end="none"/>
   <path d="M 237.876,119.125 C 237.896,118.888 237.673,118.63 237.436,118.609 L 237.19,118.589 C 237.17,118.826 237.394,119.083 237.876,119.125 L 237.876,119.125 Z" marker-start="none" marker-end="none"/>
   <path d="M 234.821,118.121 C 234.161,117.571 233.213,117.27 232.235,117.403 C 232.944,117.703 233.899,118.04 234.821,118.121 L 234.821,118.121 Z" marker-start="none" marker-end="none"/>
  </g>
 </g>
</svg>
