<?xml version="1.0" standalone="no"?>
<!DOCTYPE svg PUBLIC "-//W3C//DTD SVG 1.1//EN" "http://www.w3.org/Graphics/SVG/1.1/DTD/svg11.dtd">
<!--Generator: Xara Designer (www.xara.com), SVG filter version: 6.6.0.6-->
<svg fill="none" fill-rule="evenodd" stroke="black" stroke-width="0.501" stroke-linejoin="bevel" stroke-miterlimit="10" font-family="Times New Roman" font-size="16" style="font-variant-ligatures:none" xmlns:xlink="http://www.w3.org/1999/xlink" xmlns="http://www.w3.org/2000/svg" version="1.1" overflow="visible" width="1580.44pt" height="408.372pt" viewBox="146.282 -585.302 1580.44 408.372">
 <defs>
	</defs>
 <g id="Page background" transform="scale(1 -1)"/>
 <g id="Layer 1" transform="scale(1 -1)">
  <g id="Group" fill-rule="nonzero" stroke-linejoin="miter" stroke="none" stroke-width="1" fill="#000000">
   <path d="M 196.97,176.969 C 188.17,176.83 178.99,176.93 170.89,180.83 C 156.52,187.2 146.44,202.2 146.29,217.96 C 146.28,326.64 146.28,435.31 146.29,543.99 C 146.32,561.04 158.05,577.21 174.15,582.71 C 181.16,585.25 188.72,585.35 196.08,585.25 C 682.03,585.25 1168,585.24 1653.95,585.24 C 1666.25,584.98 1678.62,585.84 1690.89,584.66 C 1710.64,582.2 1726.69,563.94 1726.7,544.05 C 1726.72,435.71 1726.69,327.36 1726.72,219.02 C 1726.79,208.789 1722.86,198.64 1716.02,191.049 C 1708.05,181.969 1696.02,176.93 1684,177.01 C 1643.5,176.909 1602.99,177.039 1562.49,176.94 C 1562.55,196.599 1562.49,216.26 1562.52,235.909 C 1573.38,236.12 1584.24,235.719 1595.11,236.06 C 1581.94,287.67 1568.44,339.19 1554.95,390.71 C 1541.39,339.21 1528.13,287.63 1514.69,236.099 C 1525.62,235.75 1536.56,236.049 1547.5,235.9 C 1547.51,216.239 1547.42,196.59 1547.54,176.93 C 1509.91,177.02 1472.28,176.969 1434.64,176.96 C 1434.82,196.599 1434.68,216.25 1434.72,235.9 C 1445.71,236.13 1456.71,235.7 1467.7,236.09 C 1454.21,287.49 1441.04,338.98 1427.49,390.37 C 1424.87,382.75 1423.35,374.81 1421.17,367.06 C 1409.86,323.35 1398.37,279.68 1387.15,235.94 L 1420.02,235.94 C 1420.3,216.33 1419.6,196.7 1420.3,177.109 C 1382.63,176.88 1344.94,176.9 1307.27,177.09 C 1307.36,196.69 1307.32,216.289 1307.29,235.88 C 1318.21,236.03 1329.13,235.859 1340.06,235.96 C 1329.83,276.03 1319.25,316.02 1308.95,356.07 C 1305.82,367.46 1303.22,379 1299.81,390.31 C 1286.12,338.99 1273.01,287.5 1259.59,236.099 C 1270.48,235.729 1281.37,236.06 1292.27,235.9 C 1292.26,216.239 1292.18,196.59 1292.3,176.93 C 927.19,177.03 562.08,176.95 196.97,176.969 Z M 989.69,211.27 C 995.79,214.099 1000.49,219.08 1004.89,224.03 C 1008.54,228.239 1011.91,232.849 1013.92,238.099 C 1014.57,239.68 1014.5,242.02 1012.62,242.669 C 1004.38,246.789 996.22,251.099 987.85,254.94 C 987.275,255.342 986.728,255.49 986.216,255.457 C 984.682,255.357 983.467,253.627 982.77,252.239 C 979.77,246.63 976.41,240.549 970.48,237.609 C 962.62,234.46 952.62,236.52 947.33,243.359 C 943.22,247.87 942.39,254.229 942.47,260.09 C 942.55,261.919 942.31,263.94 943.46,265.51 C 944.85,265.869 946.272,265.986 947.703,266.019 C 949.135,266.051 950.575,265.999 952,266.02 C 972.03,265.96 992.06,266.039 1012.09,265.969 C 1013.5,266.099 1015.1,265.81 1016.43,266.5 C 1017.45,270.229 1017.06,274.15 1017,277.969 C 1016.6,287.61 1017.83,297.52 1014.8,306.86 C 1010.68,320.05 1001.19,331.55 988.92,337.94 C 983.51,340.8 977.637,342.635 971.615,343.516 C 968.603,343.956 965.555,344.159 962.507,344.131 C 959.46,344.104 956.415,343.847 953.41,343.37 C 932.09,340.02 913.38,322.43 909.92,300.94 C 909.16,296.68 909.27,292.34 909.27,288.02 C 909.3,277.36 909.25,266.69 909.29,256.02 C 909.29,245.07 912.53,233.979 919.28,225.26 C 927.6,214.039 941.23,207.68 954.93,206.31 C 957.86,206.057 960.828,205.905 963.799,205.904 C 972.713,205.9 981.657,207.249 989.69,211.27 Z M 725.97,216.979 C 737.62,226.26 743.97,241.2 743.95,255.96 C 743.9,269.26 744.15,282.56 743.87,295.85 C 743.53,311.43 735.71,326.98 722.39,335.4 C 709.79,343.59 694.07,345.43 679.43,343.34 C 668.92,341.84 658.87,337.16 651.03,330 C 641.49,321.02 636.45,307.94 636.27,294.96 C 636.21,281.96 636.25,268.96 636.26,255.95 C 636.2,242.89 641.12,229.68 650.46,220.419 C 658.02,212.904 668.06,208.466 678.518,206.75 C 682.005,206.179 685.537,205.909 689.04,205.93 C 702.06,205.62 715.66,208.669 725.97,216.979 Z M 890.53,206.56 C 891.34,213.34 890.67,220.18 890.98,226.989 C 890.99,230.06 891.43,233.299 890.25,236.21 C 885.87,237.95 880.95,237.739 876.68,239.81 C 869.99,243.049 865.82,250.65 866.27,258.01 C 866.45,275.49 865.93,292.99 866.54,310.45 C 874.49,311.8 882.59,310.35 890.57,311.35 C 891.5,317.19 890.68,323.09 890.97,328.95 C 891.17,332.86 891.04,336.77 890.55,340.64 C 882.57,341.72 874.49,340.42 866.51,341.53 C 865.66,349.57 867.21,357.76 865.54,365.7 C 860.04,365.99 854.51,366.12 849.02,365.81 C 847.23,365.75 846.11,364.17 844.92,363.06 C 834.27,351.65 823.44,340.39 812.76,329.01 C 812.84,323.09 811.86,317.13 812.76,311.24 C 819.32,310.58 825.93,311.33 832.48,310.52 C 833.63,305.07 832.72,299.51 833.05,294 C 832.94,280.32 832.85,266.63 833.19,252.95 C 833.55,239.9 839.53,226.979 849.85,218.84 C 855.535,214.37 862.065,210.794 868.993,208.589 C 872.458,207.487 876.022,206.727 879.63,206.368 C 883.238,206.01 886.89,206.054 890.53,206.56 Z M 1055.98,208.979 C 1058.89,209.069 1061.81,208.939 1064.73,208.908 C 1067.65,208.877 1070.57,208.945 1073.46,209.43 C 1074.09,218.94 1073.57,228.469 1073.74,237.989 C 1073.74,255.659 1073.73,273.33 1073.73,291.01 C 1073.43,300.34 1080.88,309.22 1090.15,310.49 C 1092.3,310.75 1094.52,310.857 1096.69,310.671 C 1098.88,310.485 1101.02,310.005 1103.03,309.09 C 1109.53,306 1114.34,299.24 1114.44,291.94 C 1114.6,264.51 1114.2,237.06 1114.65,209.62 C 1116.83,209.07 1119.04,208.909 1121.27,208.879 C 1123.49,208.849 1125.73,208.949 1127.95,208.919 C 1131.24,208.964 1134.53,208.892 1137.81,208.897 C 1141.1,208.902 1144.38,208.985 1147.66,209.34 C 1148.18,213.2 1148.1,217.109 1148.02,220.989 C 1148.01,235.989 1148.11,250.989 1148.04,265.99 C 1147.78,276.02 1148.48,286.06 1147.73,296.07 C 1146.62,309.6 1139.8,322.69 1128.83,330.8 C 1117.45,339.47 1102.43,342.62 1088.4,340.44 C 1082.95,339.48 1077.98,336.91 1072.78,335.15 C 1071.89,336.97 1071.11,338.81 1070.38,340.68 C 1062.58,341.63 1054.73,340.65 1046.92,340.95 C 1045.9,340.88 1044.82,340.985 1043.76,340.958 C 1042.71,340.932 1041.69,340.775 1040.79,340.18 C 1040.3,338.16 1040.39,336.07 1040.38,334 C 1040.6,292.56 1040.15,251.099 1040.61,209.669 C 1043.12,208.974 1045.67,208.844 1048.25,208.867 C 1050.83,208.889 1053.41,209.064 1055.98,208.979 Z M 799.54,209.46 C 800.05,215.969 799.7,222.5 799.8,229.02 C 799.73,282.58 799.92,336.14 799.7,389.69 C 795.96,391.14 791.9,390.35 788.01,390.5 C 781.49,390.38 774.94,390.74 768.43,390.39 C 766.3,390.08 766.49,387.59 766.45,385.96 C 766.54,327.98 766.4,269.99 766.52,212.01 C 766.31,210.145 767.332,209.367 768.708,209.056 C 770.085,208.745 771.815,208.9 773.02,208.9 C 781.85,209.599 790.76,208.27 799.54,209.46 Z M 233.93,329.18 C 245.35,335.27 252.59,348.17 251.95,361.09 C 251.68,373.02 244.73,384.49 234.33,390.31 C 227.46,394.35 219.22,395.54 211.39,394.45 C 199.88,392.73 189.55,384.77 184.9,374.11 C 180.56,364.3 180.96,352.42 186.19,343.01 C 190.9,334.31 199.47,327.75 209.17,325.67 C 211.25,325.205 213.371,324.93 215.501,324.844 C 221.888,324.588 228.342,326.037 233.93,329.18 Z M 319.98,367.11 C 333.32,375.66 341.31,391.33 341.55,407.02 C 341.53,455.65 341.56,504.28 341.54,552.91 C 341.78,554.45 340.59,556 338.95,555.72 C 329.42,555.75 319.87,555.99 310.36,555.6 C 308.67,555.33 308.33,553.37 308.44,551.95 C 308.47,503.29 308.44,454.63 308.46,405.98 C 308.49,399.44 304.76,393 299.04,389.83 C 294.9,387.67 290.14,387.33 285.67,386.21 C 283.63,386.02 283.76,383.53 283.69,382.01 C 283.71,374.67 283.69,367.33 283.7,359.99 C 283.69,358.44 283.86,355.85 286.02,356.08 C 298.25,355.22 309.93,360.63 319.98,367.11 Z M 736.33,376.54 C 740.88,383.42 742.67,391.78 742.31,399.95 C 742.71,408.2 741.26,416.72 736.78,423.77 C 729.84,435.33 716.33,441.95 703.05,442 C 691.59,441.97 680.13,442.06 668.68,441.95 C 667.88,443.31 666.93,444.61 666.48,446.12 C 665.81,448.21 667.23,450.12 668.01,451.95 C 677.63,451.82 687.45,452.18 696.57,455.61 C 708.79,459.6 719.58,468.3 725.05,480.05 C 728.33,486.86 729.87,494.41 729.95,501.94 C 730.05,518.29 729.91,534.64 730.03,550.99 C 730.11,552.7 729.74,554.36 729.17,555.94 C 719.48,556.04 709.79,556.07 700.1,555.89 C 699.6,554.22 699.15,552.53 698.76,550.82 C 695.4,549.87 692.38,552.23 689.39,553.36 C 686.69,554.69 683.805,555.39 680.858,555.737 C 677.912,556.085 674.905,556.08 671.96,556 C 662.95,555.97 654.06,553.23 646.35,548.63 C 633.55,541.13 624.76,527.44 622.73,512.79 C 621.64,502.76 621.8,492.14 626.12,482.82 C 629.04,476.22 633.93,470.83 638.01,464.96 C 639.8,462.74 638,460.11 637.13,457.9 C 634.62,452.96 634.71,447.21 635.25,441.83 C 635.57,438.77 637.41,436.12 637.72,433.06 C 637.13,431.22 635.86,429.73 634.5,428.4 C 630.91,424.95 628.03,420.84 625.36,416.66 C 621.95,411.05 622.12,404.28 622.21,397.95 C 622.03,388.93 625.01,379.81 630.86,372.89 C 636.53,366.125 644.624,361.649 653.244,359.876 C 656.118,359.285 659.05,358.995 661.97,359.02 L 702.99,359.02 C 716.02,359.03 729.27,365.38 736.33,376.54 Z M 1026.39,376.63 C 1031.13,383.79 1032.73,392.53 1032.31,401.01 C 1032.9,411.51 1029.44,422.33 1022.03,429.93 C 1015.08,437.27 1005.1,441.32 995.1,441.95 C 983.06,442.16 971.01,441.8 958.98,442.11 C 955.78,444.37 955.76,448.99 958.06,451.98 C 972.55,451.29 987.7,453.8 999.83,462.22 C 1012.51,470.71 1019.75,485.89 1019.93,500.98 C 1020.07,518.01 1019.92,535.05 1020.01,552.08 C 1019.92,553.45 1020.01,556.06 1017.99,555.91 C 1008.71,556.11 999.41,556.02 990.13,555.88 C 989.61,554.18 989.13,552.46 988.71,550.73 C 983.12,550.15 978.68,554.76 973.23,555.38 C 963.62,556.81 953.52,556.19 944.43,552.58 C 932.44,548.1 922.33,538.81 917.04,527.14 C 912.01,516.94 911.39,505.18 912.78,494.06 C 914,485.11 918.66,477.1 924.21,470.13 C 925.86,467.84 928.02,465.77 928.85,462.99 C 928.46,459.89 926.54,457.27 925.72,454.29 C 924.05,447.23 925.05,439.8 927.93,433.19 C 926.54,430.03 923.85,427.87 921.62,425.35 C 917.35,420.03 912.77,414.25 912.39,407.13 C 912.01,399.36 911.71,391.29 914.54,383.89 C 918.21,373.35 927.1,365.06 937.59,361.47 C 941.805,359.815 946.205,359.24 950.657,359.061 C 955.11,358.882 959.615,359.1 964.04,359.03 C 973.7,359.03 983.37,359.03 993.04,359.02 C 1006.09,359.05 1019.36,365.43 1026.39,376.63 Z M 1565.12,421.43 C 1575.09,422.67 1585.11,426.5 1592.13,433.91 C 1597.82,439.78 1603.56,446.15 1606.18,454.04 C 1607.38,457.35 1603.26,458.27 1601.17,459.46 C 1593.29,463.05 1585.89,467.77 1577.7,470.59 C 1575.03,469.03 1574.2,465.86 1572.64,463.4 C 1569.84,458.71 1566.33,453.8 1560.92,452.01 C 1553.3,449.84 1544.24,451.95 1539.31,458.41 C 1534.55,463.74 1534.18,471.3 1534.63,478.07 C 1534.27,480.07 1536.22,480.98 1537.9,480.91 C 1561.33,481.12 1584.78,480.85 1608.21,481.06 C 1609.47,484.91 1608.84,489.02 1609.01,492.99 C 1608.87,501.86 1609.65,510.9 1607.41,519.57 C 1605.63,527.33 1601.53,534.36 1596.5,540.45 C 1588.81,549.682 1577.77,555.911 1565.99,558.14 C 1562.06,558.883 1558.06,559.182 1554.06,559 C 1537.23,559.28 1520.73,550.66 1510.96,537.02 C 1504.12,528.28 1500.92,517.03 1501.21,506.01 C 1501.33,493.19 1501.02,480.37 1501.37,467.56 C 1502.16,450.57 1512.2,434.04 1527.75,426.71 C 1533.51,423.81 1539.69,422.192 1546.02,421.448 C 1549.19,421.076 1552.38,420.923 1555.58,420.937 C 1558.78,420.951 1561.97,421.132 1565.12,421.43 Z M 834.54,431.46 C 840.58,437.14 846.33,443.41 850.02,450.91 C 850.79,452.74 851.95,454.84 850.94,456.8 C 847.02,459.39 842.58,461.07 838.47,463.31 C 833.21,465.71 828.28,468.92 822.73,470.6 C 820.24,469.19 819.38,466.3 817.98,463.99 C 815.28,459.28 811.89,454.42 806.68,452.3 C 798.71,449.55 788.94,451.94 783.88,458.91 C 779.93,463.66 779.34,470.06 779.51,475.99 C 779.26,478.26 779.87,481.32 782.84,480.89 C 806.29,481.16 829.76,480.81 853.22,481.06 C 854.42,484.57 853.94,488.32 853.99,491.96 C 853.81,502 854.84,512.3 851.76,522.03 C 846.48,538.96 832.2,552.81 814.97,557.23 C 800.52,560.91 784.42,559.29 771.59,551.43 C 757.26,542.7 746.78,527.04 746.27,510.01 C 746.18,496.99 746.24,483.97 746.24,470.95 C 746.3,459.31 750,447.54 757.58,438.6 C 765.027,429.48 775.968,424.01 787.465,421.934 C 791.298,421.242 795.192,420.927 799.04,420.98 C 811.53,420.52 824.81,423.15 834.54,431.46 Z M 1324.17,425.1 C 1333.99,429.07 1341.12,437.45 1347.13,445.86 C 1348.99,449.16 1351.94,452.7 1351.08,456.72 C 1343.5,461.18 1335.37,464.66 1327.58,468.73 C 1326.56,469.13 1325.28,469.907 1324.06,470.24 C 1323.45,470.406 1322.86,470.461 1322.33,470.302 C 1321.79,470.143 1321.31,469.77 1320.93,469.08 C 1318.33,465.03 1316.41,460.5 1313.05,456.96 C 1305.72,448.02 1290.25,449.93 1283.82,458.99 C 1278.97,464.92 1279.22,473.07 1279.86,480.28 C 1281.19,480.56 1282.54,480.88 1283.94,480.95 C 1306.94,481.15 1329.97,480.71 1352.96,481.17 C 1354.52,483.04 1353.78,485.74 1354.01,487.98 C 1353.61,498.73 1355.04,509.73 1352.25,520.26 C 1350.41,527.76 1346.36,534.53 1341.49,540.45 C 1333.94,549.51 1323.18,555.684 1311.64,558.015 C 1307.8,558.792 1303.87,559.142 1299.95,559.03 C 1283.05,559.51 1266.35,551.16 1256.35,537.56 C 1249.73,529.21 1246.26,518.58 1246.21,507.96 C 1246.23,495.65 1246.21,483.33 1246.22,471.01 C 1246.3,460.75 1249.11,450.43 1255.01,441.97 C 1263.2,429.76 1277.48,422.7 1291.89,421.31 C 1297.31,420.925 1302.85,420.777 1308.29,421.273 C 1313.74,421.77 1319.1,422.91 1324.17,425.1 Z M 426.11,424.99 C 429.65,425.612 432.706,428.237 436.122,429.072 C 437.261,429.35 438.44,429.43 439.69,429.17 C 440.58,427.14 440.89,423.68 443.9,424.06 C 452.66,423.93 461.42,424.06 470.18,423.98 C 470.67,425.28 471.06,426.63 470.99,428.03 C 470.93,469.72 471.02,511.42 470.95,553.11 C 471.15,554.39 470.29,555.83 468.89,555.72 C 459.57,555.85 450.24,555.78 440.91,555.75 C 439.3,556.02 437.77,554.78 438.03,553.08 C 437.95,526.7 438.12,500.3 437.95,473.92 C 437.87,463.48 428.54,453.9 417.98,454.25 C 411.23,453.74 404.48,457.08 400.68,462.65 C 397.93,466.52 396.98,471.36 397,476.03 C 397.05,501.37 396.97,526.7 397.02,552.04 C 397.11,553.53 396.9,555.76 394.93,555.72 C 385.31,555.83 375.68,555.81 366.06,555.73 C 364.62,555.93 363.52,554.39 363.72,553.06 C 363.67,526.37 363.72,499.67 363.7,472.98 C 363.89,458.46 370.21,443.73 381.8,434.71 C 387.975,429.865 395.25,426.687 402.882,425.095 C 406.698,424.298 410.604,423.898 414.506,423.884 C 418.408,423.87 422.307,424.242 426.11,424.99 Z M 1185.39,426.56 C 1188.35,427.8 1191.33,430.17 1194.72,429.12 C 1195.35,427.627 1195.7,425.319 1197.1,424.406 C 1197.56,424.101 1198.14,423.952 1198.88,424.04 C 1207.26,424.01 1215.65,423.93 1224.03,424.05 C 1225.53,423.9 1226.16,425.65 1225.99,426.87 C 1226,468.6 1225.95,510.33 1226.01,552.06 C 1226.1,553.54 1225.87,555.84 1223.89,555.73 C 1214.56,555.84 1205.23,555.8 1195.91,555.74 C 1194.3,555.98 1192.76,554.84 1193.05,553.1 C 1192.99,529.39 1193.04,505.67 1193.03,481.96 C 1192.97,476.99 1193.45,471.83 1191.59,467.1 C 1189.12,460.9 1183.51,455.9 1176.92,454.6 C 1171.62,453.79 1165.85,454.15 1161.3,457.25 C 1155.32,460.95 1151.94,467.95 1152.01,474.89 C 1151.96,500.94 1152.05,526.99 1151.97,553.03 C 1152.34,554.8 1150.74,556.05 1149.09,555.77 C 1139.74,555.77 1130.38,555.84 1121.03,555.74 C 1119,555.98 1118.5,553.54 1118.7,552.01 C 1118.71,528.7 1118.7,505.38 1118.7,482.07 C 1118.29,471.48 1118.99,460.51 1123.88,450.9 C 1130.36,436.812 1144.39,427.38 1159.46,424.739 C 1161.61,424.362 1163.78,424.123 1165.96,424.03 C 1172.48,423.86 1179.36,423.61 1185.39,426.56 Z M 1481.04,431.02 C 1480.95,450.69 1481.07,470.36 1480.98,490.03 C 1480.89,497.39 1481.33,504.77 1480.63,512.11 C 1479.32,524.55 1473.29,536.63 1463.47,544.51 C 1451.71,554.31 1435.52,557.89 1420.57,555.3 C 1415.5,554.36 1411,551.71 1406.07,550.37 C 1404.44,551.82 1404.08,554.1 1403.14,555.97 C 1394.08,556.04 1385.01,556.03 1375.95,555.96 C 1373.73,556.28 1373.37,553.69 1373.44,552.07 C 1373.46,510.72 1373.46,469.36 1373.44,428.01 C 1373.39,426.81 1373.54,425.025 1374.55,424.325 C 1374.89,424.092 1375.32,423.98 1375.88,424.05 C 1385.29,423.96 1394.71,423.97 1404.13,424.06 C 1406.47,423.59 1406.86,426.24 1406.77,427.95 C 1406.76,453.97 1406.77,479.99 1406.76,506.01 C 1406.59,513.98 1411.84,521.78 1419.37,524.48 C 1423.07,525.97 1427.17,525.94 1431.08,525.53 C 1440.37,524.23 1447.7,515.31 1447.47,505.98 C 1447.44,479.98 1447.48,453.97 1447.45,427.96 C 1447.41,426.35 1447.68,423.67 1449.94,424.06 C 1460.01,423.92 1470.09,424.03 1480.16,424.03 C 1481.18,426.22 1481.03,428.67 1481.04,431.02 Z M 601.1,424.09 C 603.11,424.05 602.97,426.59 603,427.97 C 602.95,451.3 602.99,474.63 602.98,497.96 C 602.95,503.63 603.2,509.34 602.25,514.96 C 600.42,526.13 594.78,536.79 586.02,544.06 C 576.13,552.47 562.94,556.69 550.01,556.01 C 542.17,556.38 535.04,552.78 527.88,550.17 C 526.82,552.03 526.01,554.01 525.14,555.96 C 516.06,556.05 506.97,556.02 497.89,555.93 C 495.65,556.3 495.44,553.6 495.45,552.03 C 495.47,510.68 495.47,469.33 495.45,427.98 C 495.442,426.795 495.558,424.985 496.566,424.298 C 496.902,424.069 497.337,423.965 497.9,424.05 C 507.96,423.99 518.03,423.94 528.09,424.13 C 529.05,427.34 528.74,430.71 528.76,434 C 528.74,458 528.78,482 528.74,506 C 528.58,513.98 533.88,521.83 541.43,524.51 C 545.13,525.95 549.21,525.96 553.11,525.52 C 562.37,524.22 569.71,515.33 569.47,506.02 C 569.43,479.99 569.48,453.96 569.44,427.92 C 569.395,426.757 569.552,425.004 570.549,424.314 C 570.881,424.084 571.307,423.972 571.85,424.04 C 581.59,424.03 591.36,423.88 601.1,424.09 Z M 1072.12,424.14 C 1072.49,425.75 1072.79,427.39 1072.78,429.04 C 1072.72,454.72 1072.79,480.4 1072.73,506.08 C 1072.58,515.02 1079.35,523.55 1088.11,525.39 C 1090.5,525.785 1092.99,525.907 1095.41,525.601 C 1097.83,525.295 1100.18,524.56 1102.28,523.24 C 1103.7,522.49 1105.22,521.5 1106.79,520.842 C 1107.58,520.513 1108.38,520.268 1109.2,520.177 C 1110.02,520.086 1110.85,520.15 1111.69,520.44 C 1112.79,522.07 1112.43,524.17 1112.56,526.02 C 1112.47,534.3 1112.65,542.58 1112.47,550.86 C 1112.36,553.22 1109.78,554.15 1107.89,554.79 C 1097.32,557.61 1085.43,556.1 1076.63,549.31 C 1074.82,548.35 1072.48,545.33 1070.59,547.58 C 1069.02,550.06 1071.23,553.96 1068.9,555.83 C 1059.88,556.18 1050.83,555.97 1041.81,555.95 C 1039.65,556.22 1039.43,553.57 1039.45,552.05 C 1039.47,510.68 1039.47,469.31 1039.45,427.94 C 1039.45,426.762 1039.56,424.966 1040.56,424.289 C 1040.89,424.063 1041.32,423.962 1041.88,424.05 C 1051.96,424 1062.04,423.92 1072.12,424.14 Z" marker-start="none" marker-end="none"/>
   <path d="M 783.492,509.103 C 781.983,509.19 780.307,509.392 780.3,511.11 C 780.04,519.56 787.67,526.48 795.44,528.32 C 805.8,530.79 818.07,523.78 819.93,513.04 C 820.61,511.13 819.13,508.97 817.07,509.1 C 806.37,508.81 795.66,509.03 784.96,508.99 C 784.547,509.055 784.03,509.072 783.492,509.103 Z" marker-start="none" marker-end="none"/>
   <path d="M 1282.98,509.107 C 1281.96,509.21 1281.02,509.49 1280.39,510.32 C 1279.48,519.06 1287.46,526.43 1295.43,528.34 C 1305.43,530.68 1316.89,524.37 1319.69,514.41 C 1320.52,512.27 1319.97,508.86 1317.03,509.11 C 1306.7,508.78 1296.35,509.08 1286.01,508.96 C 1285.09,509.08 1283.99,509.005 1282.98,509.107 Z" marker-start="none" marker-end="none"/>
   <path d="M 1539.9,509 C 1539.52,509.055 1539.06,509.072 1538.58,509.097 C 1537.06,509.177 1535.34,509.345 1535.33,511.09 C 1535.02,519.54 1542.66,526.47 1550.41,528.32 C 1561.12,530.93 1573.94,523.24 1575.06,511.95 C 1575.12,509.17 1572.07,508.92 1570.01,508.97 C 1559.97,508.99 1549.93,508.93 1539.9,509 Z" marker-start="none" marker-end="none"/>
   <path d="M 665.76,484.78 C 658.41,488.92 654.78,497.73 655.68,505.94 C 655.56,515.05 662.39,523.79 671.45,525.39 C 678.08,526.59 685.56,525.35 690.37,520.28 C 695.12,515.95 697,509.34 696.49,503.06 C 696.95,493.67 689.97,484.65 680.83,482.64 C 675.76,481.82 670.26,482.07 665.76,484.78 Z" marker-start="none" marker-end="none"/>
   <path d="M 954.58,485.49 C 944.46,492.35 942.84,507.76 949.41,517.55 C 952.03,521.35 956.08,524.09 960.56,525.2 C 967.41,526.69 975.31,525.57 980.34,520.32 C 985.13,515.97 987,509.32 986.49,503 C 986.91,493.65 979.95,484.65 970.83,482.65 C 965.31,481.69 959.28,482.23 954.58,485.49 Z" marker-start="none" marker-end="none"/>
   <path d="M 655.84,395.95 C 655.23,401.39 654.63,409.71 661.37,411.48 C 663.61,411.93 665.882,412.042 668.162,412.053 C 670.442,412.065 672.73,411.975 675,412.02 C 683.37,411.93 691.75,412.19 700.11,411.9 C 703.37,411.92 706.95,410.4 708.14,407.13 C 709.38,403.65 709.2,399.81 708.74,396.2 C 708.18,392.06 704.22,388.91 700.08,389.1 C 688.37,388.87 676.64,388.94 664.93,389.05 C 660.74,388.78 656.15,391.45 655.84,395.95 Z" marker-start="none" marker-end="none"/>
   <path d="M 953.94,389.14 C 949.56,388.95 945.66,392.63 945.7,397.02 C 945.21,402.21 945.04,409.9 951.38,411.48 C 953.95,411.975 956.555,412.072 959.168,412.065 C 961.782,412.057 964.405,411.945 967.01,412.02 C 975.04,411.89 983.09,412.3 991.12,411.8 C 994.51,411.72 997.82,409.4 998.53,405.98 C 999.23,402.34 999.34,398.48 998.42,394.86 C 997.24,390.9 993.01,388.76 989.07,389.03 C 977.36,389 965.63,388.79 953.94,389.14 Z" marker-start="none" marker-end="none"/>
   <path d="M 684.94,236.69 C 676.21,238.68 669.78,247.159 669.65,256.03 C 669.48,268.68 669.47,281.33 669.64,293.97 C 669.77,303.01 676.45,311.62 685.39,313.42 C 689.59,314.07 694.12,314.15 698.05,312.3 C 705.57,309.18 710.8,301.17 710.48,293.01 C 710.45,280.68 710.48,268.34 710.46,256 C 710.51,248.979 706.26,242.37 700.34,238.799 C 695.76,236.02 690.1,235.789 684.94,236.69 Z" marker-start="none" marker-end="none"/>
   <path d="M 966.272,293.952 C 960.852,294.002 955.43,294.155 950.02,294.04 C 948.985,294.14 947.867,294.052 946.782,294.077 C 945.697,294.102 944.645,294.24 943.74,294.79 C 942.84,297.53 943.58,300.58 944.86,303.07 C 948.18,308.82 954.23,313.19 960.94,313.74 C 969.22,314.72 977.55,309.79 981.53,302.62 C 982.99,300.15 983.03,297.23 982.51,294.48 C 977.11,293.955 971.692,293.902 966.272,293.952 Z" marker-start="none" marker-end="none"/>
  </g>
 </g>
</svg>
