<?xml version="1.0" standalone="no"?>
<!DOCTYPE svg PUBLIC "-//W3C//DTD SVG 1.1//EN" "http://www.w3.org/Graphics/SVG/1.1/DTD/svg11.dtd">
<!--Generator: Xara Designer (www.xara.com), SVG filter version: 6.6.0.6-->
<svg fill="none" fill-rule="evenodd" stroke="black" stroke-width="0.501" stroke-linejoin="bevel" stroke-miterlimit="10" font-family="Times New Roman" font-size="16" style="font-variant-ligatures:none" xmlns:xlink="http://www.w3.org/1999/xlink" xmlns="http://www.w3.org/2000/svg" version="1.1" overflow="visible" width="786.664pt" height="217.251pt" viewBox="80 -675.276 786.664 217.251">
 <defs>
	</defs>
 <g id="Layer 1" transform="scale(1 -1)">
  <g id="Group" stroke="none" fill="#231f20" stroke-linejoin="miter" stroke-width="2.641">
   <path d="M 155.653,588.654 C 155.653,563.762 142.718,551.644 119.136,551.644 C 80,551.644 80,576.536 80,598.966 L 102.927,598.966 C 102.927,580.463 104.237,571.459 117.335,571.459 C 130.108,571.459 131.091,579.644 131.091,588.654 L 131.091,672.167 L 155.653,672.167 L 155.653,588.654 Z" marker-start="none" marker-end="none"/>
   <path d="M 253.416,554.592 L 231.474,554.592 L 231.474,566.871 L 231.147,566.871 C 225.906,557.537 216.736,552.296 204.617,552.296 C 187.425,552.296 174.979,562.125 174.979,584.391 L 174.979,641.707 L 197.906,641.707 L 197.906,587.666 C 197.906,574.238 205.764,571.623 212.805,571.623 C 220.338,571.623 230.489,575.881 230.489,591.435 L 230.489,641.707 L 253.416,641.707 L 253.416,554.592 Z" marker-start="none" marker-end="none"/>
   <path d="M 353.633,554.592 L 330.706,554.592 L 330.706,607.481 C 330.706,613.871 330.378,624.679 315.804,624.679 C 305.653,624.679 297.792,617.798 297.792,604.536 L 297.792,554.592 L 274.866,554.592 L 274.866,641.707 L 296.81,641.707 L 296.81,628.937 L 297.137,628.937 C 300.249,634.174 306.799,644 323.337,644 C 340.368,644 353.633,634.011 353.633,614.848 L 353.633,554.592 Z" marker-start="none" marker-end="none"/>
   <path d="M 454.832,641.707 L 454.832,559.174 C 454.832,544.111 453.683,519.058 410.78,519.058 C 392.769,519.058 373.773,526.749 372.79,545.257 L 397.682,545.257 C 398.662,540.836 400.466,536.414 413.73,536.414 C 426.007,536.414 431.905,542.309 431.905,556.393 L 431.905,566.871 L 431.578,567.201 C 427.811,560.487 422.08,554.098 408.326,554.098 C 387.365,554.098 370.825,568.675 370.825,599.132 C 370.825,629.264 387.856,644 407.016,644 C 423.226,644 429.776,634.499 432.56,628.77 L 432.888,628.77 L 432.888,641.707 L 454.832,641.707 M 412.581,573.419 C 428.139,573.419 432.069,586.686 432.069,598.641 C 432.069,612.724 425.188,624.188 412.418,624.188 C 403.902,624.188 394.407,617.965 394.407,597.658 C 394.407,586.522 398.989,573.419 412.581,573.419 Z" marker-start="none" marker-end="none"/>
   <path d="M 551.443,580.133 C 545.384,559.174 528.026,552.296 513.123,552.296 C 488.562,552.296 469.729,564.09 469.729,599.951 C 469.729,610.432 473.332,644 511.486,644 C 528.681,644 552.426,635.812 552.426,596.021 L 552.426,591.924 L 492.656,591.924 C 493.311,585.373 494.621,570.64 513.123,570.64 C 519.51,570.64 526.06,573.913 527.862,580.133 L 551.443,580.133 M 528.844,606.829 C 527.534,620.91 518.527,625.17 511.158,625.17 C 500.35,625.17 494.621,618.292 493.311,606.829 L 528.844,606.829 Z" marker-start="none" marker-end="none"/>
   <path d="M 632.5,590.78 C 632.664,584.23 635.939,571.784 657.389,571.784 C 669.016,571.784 681.954,574.568 681.954,587.011 C 681.954,596.182 673.11,598.641 660.665,601.586 L 648.058,604.536 C 629.059,608.958 610.72,613.216 610.72,639.087 C 610.72,652.186 617.762,675.276 655.915,675.276 C 691.94,675.276 701.602,651.697 701.769,637.286 L 678.187,637.286 C 677.532,642.526 675.567,654.97 654.117,654.97 C 644.782,654.97 633.647,651.531 633.647,640.889 C 633.647,631.715 641.177,629.756 646.092,628.607 L 674.748,621.562 C 690.794,617.635 705.535,611.087 705.535,589.961 C 705.535,554.592 669.508,551.477 659.193,551.477 C 616.288,551.477 608.919,576.205 608.919,590.78 L 632.5,590.78 Z" marker-start="none" marker-end="none"/>
   <path d="M 748.763,554.592 L 724.201,554.592 L 724.201,672.167 L 777.913,672.167 C 800.673,672.167 814.429,657.592 814.429,634.499 C 814.429,623.86 808.533,597.003 776.93,597.003 L 748.763,597.003 L 748.763,554.592 M 771.526,617.31 C 789.865,617.31 789.865,630.408 789.865,635.648 C 789.865,647.109 783.478,651.861 768.251,651.861 L 748.763,651.861 L 748.763,617.31 L 771.526,617.31 Z" marker-start="none" marker-end="none"/>
  </g>
  <g id="Group_1" stroke-linejoin="miter" stroke="none" stroke-width="2.641" fill="#000000">
   <path d="M 502.642,488.287 L 502.642,469.927 L 498.826,469.927 L 498.826,510.349 L 514.658,510.349 C 523.527,510.349 528.414,507.206 528.414,499.739 C 528.414,494.628 526.504,491.932 521.842,489.858 C 526.615,488.228 526.898,483.176 527.009,478.91 C 527.178,472.787 527.682,471.107 528.694,470.32 L 528.694,469.927 L 524.481,469.927 C 522.909,472.679 523.303,480.257 522.685,483.345 C 521.787,487.721 518.475,488.287 514.658,488.287 L 502.642,488.287 M 514.544,491.538 C 520.215,491.538 524.594,493.899 524.594,499.57 C 524.594,505.632 519.88,507.09 514.769,507.09 L 502.642,507.09 L 502.642,491.538 L 514.544,491.538 Z" marker-start="none" marker-end="none"/>
   <path d="M 542.112,483.683 C 542.056,477.391 545.424,472.169 551.882,472.169 C 556.261,472.169 559.684,474.589 560.696,478.854 L 564.457,478.854 C 562.772,473.353 559.293,469.137 551.882,469.137 C 542.563,469.137 538.519,475.767 538.519,484.356 C 538.519,492.832 543.572,499.792 551.882,499.792 C 559.853,499.792 564.737,494.124 564.682,483.683 L 542.112,483.683 M 561.09,486.49 C 561.09,492.159 557.944,496.76 551.882,496.76 C 545.931,496.76 542.785,491.992 542.112,486.49 L 561.09,486.49 Z" marker-start="none" marker-end="none"/>
   <path d="M 597.92,499.008 L 601.288,499.008 L 601.288,472.734 C 601.288,464.927 598.705,458.025 587.645,458.025 C 579.111,458.025 575.575,462.909 575.35,466.385 L 578.942,466.385 C 579.954,462.011 583.66,461.055 587.645,461.055 C 596.853,461.055 598.089,467.904 597.92,474.589 C 595.786,471.049 591.631,469.137 587.534,469.137 C 578.662,469.137 574.566,476.385 574.566,484.523 C 574.566,493.115 578.327,499.792 587.701,499.792 C 591.407,499.792 595.841,497.716 597.807,493.899 L 597.92,493.899 L 597.92,499.008 M 588.094,496.76 C 582.426,496.76 578.213,492.666 578.158,485.368 C 577.878,478.065 581.132,472.169 588.094,472.169 C 594.214,472.169 597.92,477.787 597.92,484.356 C 597.92,491.374 594.439,496.76 588.094,496.76 Z" marker-start="none" marker-end="none"/>
   <path d="M 614.315,505.352 L 614.315,510.349 L 618.018,510.349 L 618.018,505.352 L 614.315,505.352 M 614.484,469.927 L 614.484,499.008 L 617.851,499.008 L 617.851,469.927 L 614.484,469.927 Z" marker-start="none" marker-end="none"/>
   <path d="M 628.742,484.467 C 628.742,492.943 633.235,499.792 642.218,499.792 C 651.312,499.792 655.691,493.001 655.691,484.467 C 655.691,475.262 650.358,469.137 642.218,469.137 C 634.806,469.253 628.742,474.306 628.742,484.467 M 642.218,496.76 C 635.144,496.76 632.336,490.756 632.336,484.467 C 632.336,477.225 635.76,472.169 642.218,472.169 C 649.291,472.169 652.099,478.236 652.099,484.467 C 652.043,491.319 649.349,496.76 642.218,496.76 Z" marker-start="none" marker-end="none"/>
   <path d="M 669.45,469.927 L 666.079,469.927 L 666.079,499.008 L 669.45,499.008 L 669.45,494.964 C 672.144,497.827 674.782,499.792 678.824,499.792 C 682.36,499.792 685.617,498.672 687.696,495.637 C 689.096,493.561 689.154,491.374 689.154,488.96 L 689.154,469.927 L 685.786,469.927 L 685.786,488.902 C 685.786,494.124 683.652,496.76 678.264,496.76 C 674.109,496.76 671.246,494.068 670.179,491.092 C 669.505,489.24 669.45,487.61 669.45,485.59 L 669.45,469.927 Z" marker-start="none" marker-end="none"/>
   <path d="M 738.9,511.417 C 751.531,511.417 757.931,501.926 757.931,490.08 C 757.931,478.461 751.531,468.86 739.069,468.86 C 726.605,468.86 720.261,478.461 720.261,490.08 C 720.205,501.871 726.83,511.417 738.9,511.417 M 754.112,490.08 C 754.112,501.311 748.333,508.157 739.011,508.157 C 728.626,508.157 724.077,499.457 724.077,490.08 C 724.077,480.54 728.568,472.114 739.125,472.114 C 749.622,472.114 754.112,480.651 754.112,490.08 Z" marker-start="none" marker-end="none"/>
   <path d="M 769.725,469.927 L 769.725,510.349 L 773.092,510.349 L 773.092,469.927 L 769.725,469.927 Z" marker-start="none" marker-end="none"/>
   <path d="M 796.111,469.816 C 795.327,469.644 793.864,469.137 792.237,469.137 C 788.927,469.137 787.07,470.6 787.07,474.922 L 787.07,496.203 L 782.973,496.203 L 782.973,499.008 L 787.07,499.008 L 787.07,507.09 L 790.443,507.09 L 790.443,499.008 L 795.887,499.008 L 795.887,496.203 L 790.443,496.203 L 790.443,476.269 C 790.443,473.408 790.554,472.169 793.359,472.169 C 794.257,472.169 795.213,472.341 796.111,472.565 L 796.111,469.816 Z" marker-start="none" marker-end="none"/>
   <path d="M 807.789,483.683 C 807.733,477.391 811.101,472.169 817.556,472.169 C 821.936,472.169 825.361,474.589 826.37,478.854 L 830.132,478.854 C 828.446,473.353 824.968,469.137 817.556,469.137 C 808.238,469.137 804.196,475.767 804.196,484.356 C 804.196,492.832 809.249,499.792 817.556,499.792 C 825.53,499.792 830.414,494.124 830.356,483.683 L 807.789,483.683 M 826.764,486.49 C 826.764,492.159 823.621,496.76 817.556,496.76 C 811.605,496.76 808.462,491.992 807.789,486.49 L 826.764,486.49 Z" marker-start="none" marker-end="none"/>
   <path d="M 844.508,469.927 L 841.141,469.927 L 841.141,499.008 L 844.508,499.008 L 844.508,494.964 C 847.205,497.827 849.844,499.792 853.882,499.792 C 857.422,499.792 860.676,498.672 862.754,495.637 C 864.157,493.561 864.215,491.374 864.215,488.96 L 864.215,469.927 L 860.845,469.927 L 860.845,488.902 C 860.845,494.124 858.713,496.76 853.322,496.76 C 849.167,496.76 846.304,494.068 845.237,491.092 C 844.566,489.24 844.508,487.61 844.508,485.59 L 844.508,469.927 Z" marker-start="none" marker-end="none"/>
  </g>
  <rect x="-9.8885" y="-9.8885" width="19.777" height="19.777" rx="2.739" ry="2.739" transform="matrix(2.64131 0 0 2.64131 840.543 580.708)" stroke="none" stroke-linejoin="miter" stroke-width="2.641" fill="#000000"/>
 </g>
</svg>
