<?xml version="1.0" standalone="no"?>
<!DOCTYPE svg PUBLIC "-//W3C//DTD SVG 1.1//EN" "http://www.w3.org/Graphics/SVG/1.1/DTD/svg11.dtd">
<!--Generator: Xara Designer (www.xara.com), SVG filter version: 6.6.0.6-->
<svg fill="none" fill-rule="evenodd" stroke="black" stroke-width="0.501" stroke-linejoin="bevel" stroke-miterlimit="10" font-family="Times New Roman" font-size="16" style="font-variant-ligatures:none" xmlns:xlink="http://www.w3.org/1999/xlink" xmlns="http://www.w3.org/2000/svg" version="1.1" overflow="visible" width="959.999pt" height="959.999pt" viewBox="-80 -879.999 959.999 959.999">
 <defs>
	</defs>
 <g id="Page background" transform="scale(1 -1)"/>
 <g id="Layer 1" transform="scale(1 -1)">
  <g id="Group" stroke="none">
   <g id="Group_1">
    <g id="Group_2" fill="#231f20" stroke-linejoin="miter" stroke-width="1">
     <path d="M 28.642,562.481 C 28.642,553.057 23.745,548.469 14.817,548.469 C 0,548.469 0,557.893 0,566.386 L 8.68,566.386 C 8.68,559.38 9.176,555.971 14.135,555.971 C 18.971,555.971 19.343,559.07 19.343,562.481 L 19.343,594.099 L 28.642,594.099 L 28.642,562.481 Z" marker-start="none" marker-end="none"/>
     <path d="M 65.655,549.585 L 57.348,549.585 L 57.348,554.235 L 57.224,554.235 C 55.24,550.701 51.768,548.717 47.18,548.717 C 40.671,548.717 35.959,552.437 35.959,560.868 L 35.959,582.567 L 44.639,582.567 L 44.639,562.108 C 44.639,557.024 47.614,556.033 50.28,556.033 C 53.132,556.033 56.975,557.645 56.975,563.534 L 56.975,582.567 L 65.655,582.567 L 65.655,549.585 Z" marker-start="none" marker-end="none"/>
     <path d="M 103.597,549.585 L 94.917,549.585 L 94.917,569.61 C 94.917,572.028 94.793,576.12 89.275,576.12 C 85.432,576.12 82.456,573.516 82.456,568.494 L 82.456,549.585 L 73.776,549.585 L 73.776,582.567 L 82.084,582.567 L 82.084,577.732 L 82.208,577.732 C 83.386,579.715 85.866,583.435 92.127,583.435 C 98.575,583.435 103.597,579.653 103.597,572.399 L 103.597,549.585 Z" marker-start="none" marker-end="none"/>
     <path d="M 141.911,582.567 L 141.911,551.321 C 141.911,545.617 141.476,536.132 125.233,536.132 C 118.414,536.132 111.222,539.045 110.85,546.051 L 120.274,546.051 C 120.645,544.378 121.328,542.703 126.35,542.703 C 130.998,542.703 133.231,544.935 133.231,550.267 L 133.231,554.235 L 133.107,554.359 C 131.681,551.817 129.511,549.399 124.304,549.399 C 116.368,549.399 110.106,554.917 110.106,566.448 C 110.106,577.856 116.554,583.435 123.808,583.435 C 129.945,583.435 132.425,579.839 133.479,577.67 L 133.603,577.67 L 133.603,582.567 L 141.911,582.567 M 125.915,556.714 C 131.805,556.714 133.293,561.736 133.293,566.262 C 133.293,571.594 130.688,575.934 125.853,575.934 C 122.629,575.934 119.034,573.578 119.034,565.89 C 119.034,561.674 120.769,556.714 125.915,556.714 Z" marker-start="none" marker-end="none"/>
     <path d="M 178.488,559.256 C 176.194,551.321 169.622,548.717 163.98,548.717 C 154.681,548.717 147.551,553.181 147.551,566.758 C 147.551,570.726 148.915,583.435 163.36,583.435 C 169.87,583.435 178.86,580.335 178.86,565.27 L 178.86,563.72 L 156.231,563.72 C 156.479,561.24 156.975,555.661 163.98,555.661 C 166.398,555.661 168.878,556.9 169.56,559.256 L 178.488,559.256 M 169.932,569.362 C 169.436,574.693 166.026,576.306 163.236,576.306 C 159.144,576.306 156.975,573.702 156.479,569.362 L 169.932,569.362 Z" marker-start="none" marker-end="none"/>
     <path d="M 209.176,563.286 C 209.238,560.806 210.478,556.095 218.599,556.095 C 223.001,556.095 227.899,557.149 227.899,561.86 C 227.899,565.332 224.551,566.262 219.839,567.378 L 215.066,568.494 C 207.873,570.168 200.93,571.78 200.93,581.575 C 200.93,586.535 203.596,595.276 218.041,595.276 C 231.68,595.276 235.338,586.349 235.401,580.893 L 226.473,580.893 C 226.225,582.877 225.481,587.589 217.36,587.589 C 213.826,587.589 209.61,586.287 209.61,582.257 C 209.61,578.785 212.461,578.042 214.322,577.607 L 225.171,574.941 C 231.246,573.454 236.827,570.974 236.827,562.976 C 236.827,549.585 223.187,548.407 219.282,548.407 C 203.038,548.407 200.248,557.769 200.248,563.286 L 209.176,563.286 Z" marker-start="none" marker-end="none"/>
     <path d="M 253.193,549.585 L 243.894,549.585 L 243.894,594.099 L 264.229,594.099 C 272.846,594.099 278.054,588.581 278.054,579.839 C 278.054,575.81 275.822,565.642 263.857,565.642 L 253.193,565.642 L 253.193,549.585 M 261.811,573.33 C 268.754,573.33 268.754,578.29 268.754,580.274 C 268.754,584.613 266.336,586.411 260.571,586.411 L 253.193,586.411 L 253.193,573.33 L 261.811,573.33 Z" marker-start="none" marker-end="none"/>
    </g>
    <g id="Group_3">
     <g id="ClipView">
      <path d="M -27.805,530.217 L 305.859,530.217 L 305.859,601.19 L -27.805,601.19 L -27.805,530.217"/>
      <clipPath id="ClipPath">
       <path d="M -27.805,530.217 L 305.859,530.217 L 305.859,601.19 L -27.805,601.19 L -27.805,530.217 Z"/>
      </clipPath>
      <g clip-path="url(#ClipPath)">
       <rect x="-79.999" y="-80" width="959.999" height="959.999" fill="#ffffff" stroke-linejoin="miter"/>
      </g>
     </g>
    </g>
   </g>
   <g id="Group_4">
    <g id="Group_5" fill="#231f20" stroke-linejoin="miter" stroke-width="1">
     <path d="M 160.012,524.482 L 160.012,517.531 L 158.567,517.531 L 158.567,532.835 L 164.561,532.835 C 167.919,532.835 169.769,531.645 169.769,528.818 C 169.769,526.884 169.046,525.863 167.281,525.077 C 169.088,524.46 169.195,522.547 169.237,520.932 C 169.301,518.615 169.492,517.978 169.875,517.68 L 169.875,517.531 L 168.28,517.531 C 167.685,518.573 167.834,521.442 167.6,522.611 C 167.26,524.269 166.006,524.482 164.561,524.482 L 160.012,524.482 M 164.518,525.714 C 166.665,525.714 168.323,526.607 168.323,528.754 C 168.323,531.049 166.538,531.602 164.603,531.602 L 160.012,531.602 L 160.012,525.714 L 164.518,525.714 Z" marker-start="none" marker-end="none"/>
     <path d="M 174.955,522.739 C 174.934,520.358 176.209,518.381 178.654,518.381 C 180.312,518.381 181.608,519.296 181.991,520.911 L 183.415,520.911 C 182.777,518.828 181.46,517.233 178.654,517.233 C 175.126,517.233 173.595,519.742 173.595,522.994 C 173.595,526.203 175.508,528.839 178.654,528.839 C 181.672,528.839 183.521,526.692 183.5,522.739 L 174.955,522.739 M 182.14,523.802 C 182.14,525.948 180.949,527.691 178.654,527.691 C 176.401,527.691 175.21,525.885 174.955,523.802 L 182.14,523.802 Z" marker-start="none" marker-end="none"/>
     <path d="M 196.084,528.541 L 197.359,528.541 L 197.359,518.594 C 197.359,515.639 196.381,513.025 192.194,513.025 C 188.963,513.025 187.624,514.874 187.539,516.191 L 188.899,516.191 C 189.282,514.534 190.685,514.173 192.194,514.173 C 195.68,514.173 196.148,516.766 196.084,519.296 C 195.276,517.956 193.703,517.233 192.152,517.233 C 188.793,517.233 187.242,519.976 187.242,523.058 C 187.242,526.31 188.666,528.839 192.215,528.839 C 193.618,528.839 195.297,528.052 196.041,526.607 L 196.084,526.607 L 196.084,528.541 M 192.364,527.691 C 190.218,527.691 188.623,526.14 188.602,523.377 C 188.496,520.613 189.728,518.381 192.364,518.381 C 194.681,518.381 196.084,520.507 196.084,522.994 C 196.084,525.651 194.766,527.691 192.364,527.691 Z" marker-start="none" marker-end="none"/>
     <path d="M 202.291,530.943 L 202.291,532.835 L 203.693,532.835 L 203.693,530.943 L 202.291,530.943 M 202.355,517.531 L 202.355,528.541 L 203.63,528.541 L 203.63,517.531 L 202.355,517.531 Z" marker-start="none" marker-end="none"/>
     <path d="M 207.753,523.036 C 207.753,526.246 209.454,528.839 212.855,528.839 C 216.298,528.839 217.956,526.267 217.956,523.036 C 217.956,519.551 215.937,517.233 212.855,517.233 C 210.049,517.276 207.753,519.189 207.753,523.036 M 212.855,527.691 C 210.177,527.691 209.114,525.417 209.114,523.036 C 209.114,520.294 210.41,518.381 212.855,518.381 C 215.533,518.381 216.596,520.677 216.596,523.036 C 216.575,525.63 215.555,527.691 212.855,527.691 Z" marker-start="none" marker-end="none"/>
     <path d="M 223.165,517.531 L 221.889,517.531 L 221.889,528.541 L 223.165,528.541 L 223.165,527.011 C 224.185,528.095 225.184,528.839 226.714,528.839 C 228.053,528.839 229.286,528.414 230.073,527.266 C 230.603,526.48 230.625,525.651 230.625,524.737 L 230.625,517.531 L 229.35,517.531 L 229.35,524.715 C 229.35,526.692 228.542,527.691 226.502,527.691 C 224.929,527.691 223.845,526.671 223.441,525.544 C 223.186,524.843 223.165,524.227 223.165,523.461 L 223.165,517.531 Z" marker-start="none" marker-end="none"/>
     <path d="M 249.459,533.239 C 254.241,533.239 256.664,529.647 256.664,525.162 C 256.664,520.762 254.241,517.127 249.523,517.127 C 244.804,517.127 242.402,520.762 242.402,525.162 C 242.381,529.625 244.889,533.239 249.459,533.239 M 255.218,525.162 C 255.218,529.413 253.03,532.006 249.501,532.006 C 245.569,532.006 243.847,528.712 243.847,525.162 C 243.847,521.549 245.547,518.36 249.544,518.36 C 253.518,518.36 255.218,521.591 255.218,525.162 Z" marker-start="none" marker-end="none"/>
     <path d="M 261.129,517.531 L 261.129,532.835 L 262.404,532.835 L 262.404,517.531 L 261.129,517.531 Z" marker-start="none" marker-end="none"/>
     <path d="M 271.119,517.489 C 270.822,517.425 270.268,517.233 269.652,517.233 C 268.399,517.233 267.696,517.786 267.696,519.423 L 267.696,527.479 L 266.145,527.479 L 266.145,528.541 L 267.696,528.541 L 267.696,531.602 L 268.973,531.602 L 268.973,528.541 L 271.034,528.541 L 271.034,527.479 L 268.973,527.479 L 268.973,519.933 C 268.973,518.849 269.015,518.381 270.077,518.381 C 270.417,518.381 270.779,518.445 271.119,518.53 L 271.119,517.489 Z" marker-start="none" marker-end="none"/>
     <path d="M 275.54,522.739 C 275.519,520.358 276.794,518.381 279.238,518.381 C 280.896,518.381 282.193,519.296 282.575,520.911 L 283.999,520.911 C 283.361,518.828 282.044,517.233 279.238,517.233 C 275.71,517.233 274.18,519.742 274.18,522.994 C 274.18,526.203 276.093,528.839 279.238,528.839 C 282.257,528.839 284.106,526.692 284.084,522.739 L 275.54,522.739 M 282.724,523.802 C 282.724,525.948 281.534,527.691 279.238,527.691 C 276.985,527.691 275.795,525.885 275.54,523.802 L 282.724,523.802 Z" marker-start="none" marker-end="none"/>
     <path d="M 289.442,517.531 L 288.167,517.531 L 288.167,528.541 L 289.442,528.541 L 289.442,527.011 C 290.463,528.095 291.462,528.839 292.991,528.839 C 294.331,528.839 295.563,528.414 296.35,527.266 C 296.881,526.48 296.903,525.651 296.903,524.737 L 296.903,517.531 L 295.627,517.531 L 295.627,524.715 C 295.627,526.692 294.82,527.691 292.779,527.691 C 291.206,527.691 290.122,526.671 289.718,525.544 C 289.464,524.843 289.442,524.227 289.442,523.461 L 289.442,517.531 Z" marker-start="none" marker-end="none"/>
    </g>
    <g id="Group_6">
     <g id="ClipView_1">
      <path d="M 144.633,510.903 L 311.836,510.903 L 311.836,536.36 L 144.633,536.36 L 144.633,510.903"/>
      <clipPath id="ClipPath_1">
       <path d="M 144.633,510.903 L 311.836,510.903 L 311.836,536.36 L 144.633,536.36 L 144.633,510.903 Z"/>
      </clipPath>
      <g clip-path="url(#ClipPath_1)">
       <rect x="-79.999" y="-80" width="959.999" height="959.999" fill="#ffffff" stroke-linejoin="miter"/>
      </g>
     </g>
    </g>
   </g>
   <rect x="-9.8885" y="-9.8885" width="19.777" height="19.777" rx="2.74" ry="2.74" transform="matrix(1 0 0 1 287.942 559.473)" fill="#000000" stroke-linejoin="miter" stroke-width="1"/>
  </g>
 </g>
</svg>
