<?xml version="1.0" standalone="no"?>
<!DOCTYPE svg PUBLIC "-//W3C//DTD SVG 1.1//EN" "http://www.w3.org/Graphics/SVG/1.1/DTD/svg11.dtd">
<!--Generator: Xara Designer (www.xara.com), SVG filter version: 6.6.0.6-->
<svg fill="none" fill-rule="evenodd" stroke="black" stroke-width="0.501" stroke-linejoin="bevel" stroke-miterlimit="10" font-family="Times New Roman" font-size="16" style="font-variant-ligatures:none" xmlns:xlink="http://www.w3.org/1999/xlink" xmlns="http://www.w3.org/2000/svg" version="1.1" overflow="visible" width="185.526pt" height="124.67pt" viewBox="0 -124.67 185.526 124.67">
 <defs>
	</defs>
 <g id="Layer 1" transform="scale(1 -1)">
  <g id="Group" stroke-linejoin="miter" stroke="none" stroke-width="1">
   <path d="M 38.813,90.33 C 38.813,77.199 29.723,70.201 19.479,70.201 C 9.235,70.201 0,77.199 0,90.33 C 0,103.388 9.235,110.602 19.479,110.602 C 29.723,110.602 38.813,103.388 38.813,90.33 M 28.064,90.33 C 28.064,96.605 24.673,101.007 19.479,101.007 C 14.212,101.007 10.749,96.605 10.749,90.33 C 10.749,83.836 14.212,79.725 19.479,79.725 C 24.673,79.725 28.064,83.836 28.064,90.33 Z" fill="#000000" marker-start="none" marker-end="none"/>
   <path d="M 44.516,71.211 L 44.516,124.67 L 55.482,124.67 L 55.482,71.211 L 44.516,71.211 Z" fill="#000000" marker-start="none" marker-end="none"/>
   <path d="M 65.945,109.52 L 65.945,121.351 L 76.91,121.351 L 76.91,109.52 L 84.991,109.52 L 84.991,100.357 L 76.91,100.357 L 76.91,71.211 L 65.945,71.211 L 65.945,100.357 L 60.029,100.357 L 60.029,109.52 L 65.945,109.52 Z" fill="#000000" marker-start="none" marker-end="none"/>
   <path d="M 96.532,87.011 C 96.892,82.178 100.427,79.075 105.261,79.075 C 110.023,79.075 112.403,81.239 114.423,84.63 L 120.988,77.705 C 117.309,72.943 112.331,70.201 105.261,70.201 C 95.161,70.201 85.638,76.478 85.638,90.474 C 85.638,103.17 94.728,110.531 104.107,110.531 C 114.496,110.531 121.782,103.388 121.782,91.195 C 121.782,90.474 121.782,88.31 121.638,87.011 L 96.532,87.011 M 111.249,94.369 C 111.033,98.121 108.508,101.512 104.035,101.512 C 99.778,101.512 97.109,98.265 96.676,94.369 L 111.249,94.369 Z" fill="#000000" marker-start="none" marker-end="none"/>
   <path d="M 137.297,109.52 L 137.297,103.748 C 139.389,107.644 143.068,110.313 148.118,110.313 C 154.107,110.313 160.095,107.5 160.095,95.308 L 160.095,71.211 L 149.273,71.211 L 149.273,92.062 C 149.273,97.183 147.974,100.719 144.223,100.719 C 140.255,100.719 138.379,96.605 138.379,91.556 L 138.379,71.211 L 127.486,71.211 L 127.486,109.52 L 137.297,109.52 Z" fill="#000000" marker-start="none" marker-end="none"/>
   <path d="M 22.796,9.738 C 23.445,9.594 24.095,9.451 25.176,9.451 C 27.846,9.451 29.216,10.46 29.216,14.861 L 29.216,52.592 L 40.11,52.592 L 40.11,14.428 C 40.11,4.977 34.844,0 27.413,0 C 26.042,0 24.382,0.071 22.796,0.36 L 22.796,9.738 M 34.7,68.897 C 30.732,68.897 27.918,66.3 27.918,62.476 C 27.918,58.724 30.732,55.983 34.7,55.983 C 38.595,55.983 41.481,58.724 41.481,62.476 C 41.481,66.3 38.595,68.897 34.7,68.897 Z" fill="#231f20" marker-start="none" marker-end="none"/>
   <path d="M 56.415,30.083 C 56.776,25.25 60.311,22.148 65.144,22.148 C 69.906,22.148 72.287,24.311 74.307,27.702 L 80.872,20.777 C 77.193,16.016 72.215,13.273 65.144,13.273 C 55.044,13.273 45.521,19.55 45.521,33.546 C 45.521,46.243 54.612,53.603 63.99,53.603 C 74.379,53.603 81.666,46.46 81.666,34.267 C 81.666,33.546 81.666,31.382 81.521,30.083 L 56.415,30.083 M 71.133,37.442 C 70.916,41.194 68.392,44.584 63.918,44.584 C 59.662,44.584 56.992,41.338 56.56,37.442 L 71.133,37.442 Z" fill="#231f20" marker-start="none" marker-end="none"/>
   <path d="M 89.75,52.592 L 89.75,64.424 L 100.715,64.424 L 100.715,52.592 L 108.796,52.592 L 108.796,43.43 L 100.715,43.43 L 100.715,14.284 L 89.75,14.284 L 89.75,43.43 L 83.834,43.43 L 83.834,52.592 L 89.75,52.592 Z" fill="#231f20" marker-start="none" marker-end="none"/>
   <path d="M 139.747,52.592 L 139.747,43.286 L 123.371,23.446 L 139.82,23.446 L 139.82,14.284 L 111.54,14.284 L 111.54,23.518 L 127.916,43.43 L 111.755,43.43 L 111.755,52.592 L 139.747,52.592 Z" fill="#231f20" marker-start="none" marker-end="none"/>
   <path d="M 149.13,52.592 L 149.13,64.424 L 160.096,64.424 L 160.096,52.592 L 168.176,52.592 L 168.176,43.43 L 160.096,43.43 L 160.096,14.284 L 149.13,14.284 L 149.13,43.43 L 143.214,43.43 L 143.214,52.592 L 149.13,52.592 Z" fill="#231f20" marker-start="none" marker-end="none"/>
   <path d="M 178.599,27.264 C 174.486,27.264 171.456,24.306 171.456,20.193 C 171.456,16.153 174.486,13.194 178.599,13.194 C 182.639,13.194 185.527,16.153 185.527,20.193 C 185.527,24.306 182.639,27.264 178.599,27.264" fill="#000000"/>
   <path d="M 183.828,109.519 L 173.155,109.519 L 173.636,32.59 L 183.347,32.59 L 183.828,109.519 Z" fill="#000000" marker-start="none" marker-end="none"/>
  </g>
 </g>
</svg>
