<?xml version="1.0" standalone="no"?>
<!DOCTYPE svg PUBLIC "-//W3C//DTD SVG 1.1//EN" "http://www.w3.org/Graphics/SVG/1.1/DTD/svg11.dtd">
<!--Generator: Xara Designer (www.xara.com), SVG filter version: 6.6.0.6-->
<svg fill="none" fill-rule="evenodd" stroke="black" stroke-width="0.501" stroke-linejoin="bevel" stroke-miterlimit="10" font-family="Times New Roman" font-size="16" style="font-variant-ligatures:none" xmlns:xlink="http://www.w3.org/1999/xlink" xmlns="http://www.w3.org/2000/svg" version="1.1" overflow="visible" width="185.526pt" height="124.669pt" viewBox="0 -124.669 185.526 124.669">
 <defs>
	</defs>
 <g id="Layer 1" transform="scale(1 -1)">
  <path d="M 38.813,90.329 C 38.813,77.198 29.723,70.2 19.479,70.2 C 9.235,70.2 0,77.198 0,90.329 C 0,103.387 9.235,110.601 19.479,110.601 C 29.723,110.601 38.813,103.387 38.813,90.329 M 28.064,90.329 C 28.064,96.604 24.673,101.006 19.479,101.006 C 14.212,101.006 10.749,96.604 10.749,90.329 C 10.749,83.835 14.212,79.724 19.479,79.724 C 24.673,79.724 28.064,83.835 28.064,90.329 Z" fill="#000000" stroke-linejoin="miter" stroke="none" stroke-width="1" marker-start="none" marker-end="none"/>
  <path d="M 44.516,71.21 L 44.516,124.669 L 55.482,124.669 L 55.482,71.21 L 44.516,71.21 Z" fill="#000000" stroke-linejoin="miter" stroke="none" stroke-width="1" marker-start="none" marker-end="none"/>
  <path d="M 65.945,109.519 L 65.945,121.35 L 76.91,121.35 L 76.91,109.519 L 84.991,109.519 L 84.991,100.356 L 76.91,100.356 L 76.91,71.21 L 65.945,71.21 L 65.945,100.356 L 60.029,100.356 L 60.029,109.519 L 65.945,109.519 Z" fill="#000000" stroke-linejoin="miter" stroke="none" stroke-width="1" marker-start="none" marker-end="none"/>
  <path d="M 96.532,87.01 C 96.892,82.177 100.427,79.074 105.261,79.074 C 110.023,79.074 112.403,81.238 114.423,84.629 L 120.988,77.704 C 117.309,72.942 112.331,70.2 105.261,70.2 C 95.161,70.2 85.638,76.477 85.638,90.473 C 85.638,103.169 94.728,110.53 104.107,110.53 C 114.496,110.53 121.782,103.387 121.782,91.194 C 121.782,90.473 121.782,88.309 121.638,87.01 L 96.532,87.01 M 111.249,94.368 C 111.033,98.12 108.508,101.511 104.035,101.511 C 99.778,101.511 97.109,98.264 96.676,94.368 L 111.249,94.368 Z" fill="#000000" stroke-linejoin="miter" stroke="none" stroke-width="1" marker-start="none" marker-end="none"/>
  <path d="M 137.297,109.519 L 137.297,103.747 C 139.389,107.643 143.068,110.312 148.118,110.312 C 154.107,110.312 160.095,107.499 160.095,95.307 L 160.095,71.21 L 149.273,71.21 L 149.273,92.061 C 149.273,97.182 147.974,100.718 144.223,100.718 C 140.255,100.718 138.379,96.604 138.379,91.555 L 138.379,71.21 L 127.486,71.21 L 127.486,109.519 L 137.297,109.519 Z" fill="#000000" stroke-linejoin="miter" stroke="none" stroke-width="1" marker-start="none" marker-end="none"/>
  <path d="M 22.796,9.737 C 23.445,9.593 24.095,9.45 25.176,9.45 C 27.846,9.45 29.216,10.459 29.216,14.86 L 29.216,52.591 L 40.11,52.591 L 40.11,14.427 C 40.11,4.976 34.844,0 27.413,0 C 26.042,0 24.382,0.07 22.796,0.359 L 22.796,9.737 M 34.7,68.896 C 30.732,68.896 27.918,66.299 27.918,62.475 C 27.918,58.723 30.732,55.982 34.7,55.982 C 38.595,55.982 41.481,58.723 41.481,62.475 C 41.481,66.299 38.595,68.896 34.7,68.896 Z" fill="#000000" stroke-linejoin="miter" stroke="none" stroke-width="1" marker-start="none" marker-end="none"/>
  <path d="M 56.415,30.082 C 56.776,25.249 60.311,22.147 65.143,22.147 C 69.906,22.147 72.287,24.31 74.307,27.701 L 80.872,20.776 C 77.193,16.015 72.215,13.272 65.143,13.272 C 55.044,13.272 45.521,19.549 45.521,33.545 C 45.521,46.242 54.612,53.602 63.99,53.602 C 74.379,53.602 81.666,46.459 81.666,34.266 C 81.666,33.545 81.666,31.381 81.521,30.082 L 56.415,30.082 M 71.133,37.441 C 70.916,41.193 68.392,44.583 63.918,44.583 C 59.662,44.583 56.992,41.337 56.56,37.441 L 71.133,37.441 Z" fill="#000000" stroke-linejoin="miter" stroke="none" stroke-width="1" marker-start="none" marker-end="none"/>
  <path d="M 89.75,52.591 L 89.75,64.423 L 100.715,64.423 L 100.715,52.591 L 108.796,52.591 L 108.796,43.429 L 100.715,43.429 L 100.715,14.283 L 89.75,14.283 L 89.75,43.429 L 83.834,43.429 L 83.834,52.591 L 89.75,52.591 Z" fill="#000000" stroke-linejoin="miter" stroke="none" stroke-width="1" marker-start="none" marker-end="none"/>
  <path d="M 139.747,52.591 L 139.747,43.285 L 123.371,23.445 L 139.82,23.445 L 139.82,14.283 L 111.54,14.283 L 111.54,23.517 L 127.916,43.429 L 111.755,43.429 L 111.755,52.591 L 139.747,52.591 Z" fill="#000000" stroke-linejoin="miter" stroke="none" stroke-width="1" marker-start="none" marker-end="none"/>
  <path d="M 149.13,52.591 L 149.13,64.423 L 160.096,64.423 L 160.096,52.591 L 168.176,52.591 L 168.176,43.429 L 160.096,43.429 L 160.096,14.283 L 149.13,14.283 L 149.13,43.429 L 143.214,43.429 L 143.214,52.591 L 149.13,52.591 Z" fill="#000000" stroke-linejoin="miter" stroke="none" stroke-width="1" marker-start="none" marker-end="none"/>
  <path d="M 178.599,27.263 C 174.486,27.263 171.456,24.305 171.456,20.192 C 171.456,16.152 174.486,13.193 178.599,13.193 C 182.639,13.193 185.527,16.152 185.527,20.192 C 185.527,24.305 182.639,27.263 178.599,27.263" fill="#000000" stroke-linejoin="miter" stroke="none" stroke-width="1"/>
  <path d="M 183.828,109.518 L 173.155,109.518 L 173.636,32.589 L 183.347,32.589 L 183.828,109.518 Z" fill="#000000" stroke-linejoin="miter" stroke="none" stroke-width="1" marker-start="none" marker-end="none"/>
 </g>
</svg>
